<svg width="260" height="309" viewBox="0 0 260 309" fill="none" xmlns="http://www.w3.org/2000/svg">
<path d="M212.411 82.7508L203.651 79.2185C203.651 79.2185 192.091 100.297 188.78 101.366C184.276 102.814 174.951 106.841 169.423 107.547C168.672 108.43 167.445 111.177 167.56 112.175C174.986 114.656 191.305 111.362 194.802 108.766C202.759 102.876 212.411 82.7508 212.411 82.7508Z" fill="#E58A7B"/>
<path d="M215.104 77.9558C216.738 83.9871 207.889 96.1204 207.889 96.1204L196.295 89.6211C196.295 89.6211 198.467 84.6317 201.116 79.5541C205.364 71.3504 213.241 71.0767 215.104 77.9558Z" fill="#4CAF4F"/>
<path opacity="0.2" d="M215.104 77.9558C216.738 83.9871 207.889 96.1204 207.889 96.1204L196.295 89.6211C196.295 89.6211 198.467 84.6317 201.116 79.5541C205.364 71.3504 213.241 71.0767 215.104 77.9558Z" fill="black"/>
<path opacity="0.2" d="M200.896 92.2173L205.461 94.7782L206.265 80.7639C203.607 82.8038 201.734 88.9499 200.896 92.2173Z" fill="black"/>
<path d="M207.474 73.4168C207.474 73.4168 198.449 93.4977 203.712 130.887H239.274C239.839 125.429 237.967 98.7961 244.74 73.0812C240.839 72.3188 236.892 71.8144 232.924 71.5712C227.892 71.2796 222.847 71.2796 217.815 71.5712C214.327 71.9254 210.87 72.5424 207.474 73.4168Z" fill="#4CAF4F"/>
<path opacity="0.2" d="M207.474 73.4168C207.474 73.4168 198.449 93.4977 203.712 130.887H239.274C239.839 125.429 237.967 98.7961 244.74 73.0812C240.839 72.3188 236.892 71.8144 232.924 71.5712C227.892 71.2796 222.847 71.2796 217.815 71.5712C214.327 71.9254 210.87 72.5424 207.474 73.4168Z" fill="black"/>
<g style="mix-blend-mode:multiply">
<path d="M199.226 306.793C199.173 307.747 212.658 308.515 229.339 308.515C246.02 308.515 259.602 307.747 259.655 306.793C259.708 305.84 246.232 305.08 229.542 305.08C212.852 305.08 199.288 305.849 199.226 306.793Z" fill="#E8ECF1"/>
</g>
<path d="M222.964 281.734L216.657 284.176L222.09 298.211L228.397 295.77L222.964 281.734Z" fill="#E58A7B"/>
<path d="M251.089 300.003H244.439L242.002 284.611H248.652L251.089 300.003Z" fill="#E58A7B"/>
<path d="M243.98 299.234H251.451C251.581 299.235 251.706 299.281 251.804 299.365C251.903 299.449 251.969 299.566 251.99 299.694L252.952 305.601C252.972 305.75 252.961 305.9 252.917 306.044C252.874 306.187 252.801 306.319 252.702 306.431C252.603 306.544 252.481 306.633 252.344 306.694C252.208 306.755 252.06 306.786 251.91 306.785C249.305 306.74 248.051 306.581 244.766 306.581C242.744 306.581 238.585 306.793 235.777 306.793C232.968 306.793 232.783 304.038 233.94 303.782C239.132 302.661 241.146 301.133 242.876 299.649C243.182 299.381 243.574 299.234 243.98 299.234Z" fill="#263238"/>
<path d="M221.904 296.956L228.968 294.89C229.094 294.854 229.229 294.863 229.349 294.914C229.47 294.966 229.569 295.057 229.63 295.172L232.28 300.471C232.341 300.605 232.373 300.751 232.372 300.899C232.371 301.047 232.338 301.193 232.275 301.327C232.212 301.46 232.12 301.579 232.007 301.673C231.893 301.768 231.76 301.837 231.617 301.875C229.048 302.581 227.326 303.014 224.111 303.95C221.895 304.595 219.634 305.645 217.444 306.343C215.925 306.829 212.358 306.846 210.512 306.846C207.783 306.846 207.174 303.968 208.349 303.835C211.307 303.508 211.704 303.659 213.338 302.837C216.011 301.669 218.434 299.996 220.473 297.91C220.858 297.471 221.351 297.142 221.904 296.956Z" fill="#263238"/>
<path d="M170.536 107.512L163.224 104.448L160.213 112.554C163.21 113.011 166.258 113.011 169.255 112.554L170.536 107.512Z" fill="#E58A7B"/>
<path d="M157.784 104.236L157.59 109.622L160.213 112.537L163.224 104.43L157.784 104.236Z" fill="#E58A7B"/>
<path d="M223.829 282.926L217.502 285.369L220.304 292.627L226.631 290.184L223.829 282.926Z" fill="#CF6F64"/>
<path d="M248.652 284.611H242.002L243.265 292.55H249.914L248.652 284.611Z" fill="#CF6F64"/>
<path opacity="0.2" d="M202.582 120.776C202.715 122.374 202.865 124.008 203.059 125.685L229.498 117.102C233.627 115.878 237.215 113.284 239.671 109.746C239.777 107.388 239.909 104.907 240.112 102.32C240.201 101.066 240.307 99.7763 240.422 98.4694C240.536 97.1624 240.695 95.7142 240.863 94.319L202.582 120.776Z" fill="black"/>
<path d="M211.219 91.8111L210.335 91.7051C210.856 87.2898 214.15 83.8105 217.621 83.8988V84.7819C214.583 84.7201 211.687 87.8549 211.219 91.8111Z" fill="white"/>
<path d="M215.925 99.9618H215.775V99.0787C218.813 99.1935 221.665 96.0233 222.133 92.076L223.016 92.182C222.548 96.5001 219.36 99.9618 215.925 99.9618Z" fill="white"/>
<path d="M232.43 54.5545C231.185 59.4202 229.719 68.3303 232.924 71.5712C232.924 71.5712 230.681 76.5075 221.648 76.5075C213.391 76.5075 217.815 71.5712 217.815 71.5712C223.308 70.2819 223.405 66.2728 222.681 62.4756L232.43 54.5545Z" fill="#E58A7B"/>
<path d="M228.456 57.7865L222.69 62.4756C222.868 63.3482 222.972 64.2345 222.999 65.1248C224.685 66.8026 228.067 62.5551 228.412 60.3827C228.587 59.5275 228.602 58.6472 228.456 57.7865Z" fill="#CF6F64"/>
<path d="M212.773 54.4927C213.174 55.1881 213.714 55.7933 214.36 56.2704C215.006 56.7475 215.743 57.0863 216.526 57.2655C218.645 57.7335 219.705 55.782 219.122 53.8216C218.601 52.0554 216.861 49.68 214.707 50.0862C214.245 50.1813 213.813 50.3855 213.447 50.6819C213.08 50.9783 212.79 51.3582 212.601 51.7897C212.412 52.2212 212.328 52.6918 212.358 53.1621C212.388 53.6323 212.53 54.0886 212.773 54.4927Z" fill="#CF6F64"/>
<path d="M216.279 38.9242C212.976 40.4343 211.81 53.5566 215.961 55.4994C220.111 57.4421 222.531 36.0543 216.279 38.9242Z" fill="#263238"/>
<path d="M233.436 47.2339C232.642 53.8216 232.553 57.6982 229.021 61.0715C227.927 62.191 226.544 62.9861 225.026 63.3693C223.508 63.7524 221.914 63.7085 220.419 63.2426C218.924 62.7766 217.587 61.9067 216.556 60.7289C215.525 59.551 214.839 58.111 214.574 56.5679C213.506 50.6514 214.98 40.8758 221.586 38.2531C222.974 37.641 224.5 37.4112 226.006 37.5875C227.513 37.7639 228.945 38.34 230.154 39.2562C231.363 40.1723 232.305 41.3952 232.882 42.7979C233.459 44.2006 233.651 45.7322 233.436 47.2339Z" fill="#E58A7B"/>
<path d="M222.584 42.3329C227.476 41.0878 231.07 40.24 229.781 44.3109C228.076 49.7506 226.028 55.0137 228.774 55.2521C230.452 55.4022 237.869 52.2585 236.925 49.0707C236.103 46.2978 239.574 45.5384 240.192 44.1343C242.479 39.0479 235.936 39.719 237.101 36.6283C238.267 33.5375 231.803 28.5571 228.271 31.0385C222.522 35.0476 212.658 34.9858 217.842 28.3893C221.559 23.6825 214.927 24.6451 214.927 24.6451C214.927 24.6451 218.937 27.0205 212.19 30.6941C205.055 34.6149 211.598 45.1499 222.584 42.3329Z" fill="#263238"/>
<path d="M236.033 54.4927C235.067 55.8902 233.616 56.8785 231.962 57.2655C229.781 57.7335 228.942 55.782 229.763 53.8216C230.496 52.0554 232.509 49.68 234.593 50.0862C236.677 50.4924 237.154 52.7619 236.033 54.4927Z" fill="#E58A7B"/>
<path d="M203.712 130.887C203.712 130.887 197.743 184.312 197.275 204.587C196.798 225.675 217.506 291.472 217.506 291.472L228.103 287.057C228.103 287.057 215.74 226.938 217.506 206.23C219.378 183.65 227.114 130.922 227.114 130.922L203.712 130.887Z" fill="#4CAF4F"/>
<path opacity="0.2" d="M218.548 145.554C213.788 155.427 216.994 174.952 219.572 186.52C220.553 178.351 221.718 169.485 222.822 161.282C222.716 148.672 221.736 138.931 218.548 145.554Z" fill="black"/>
<path d="M227.635 283.56C227.688 283.56 228.889 286.933 228.889 286.933L216.667 292.073L214.742 288.487L227.635 283.56Z" fill="#4CAF4F"/>
<path d="M216.331 130.887C216.331 130.887 220.897 181.698 223.917 200.728C227.237 221.578 240.254 291.013 240.254 291.013H252.431C252.431 291.013 245.137 223.264 243.76 202.618C242.258 180.224 239.274 130.887 239.274 130.887H216.331Z" fill="#4CAF4F"/>
<path d="M252.617 287.843C252.67 287.843 253.023 291.243 253.023 291.243H239.636L238.682 287.339L252.617 287.843Z" fill="#4CAF4F"/>
<path opacity="0.2" d="M247.954 283.816C247.926 283.816 247.9 283.807 247.879 283.789C247.857 283.771 247.844 283.746 247.839 283.719C247.769 283.101 241.19 221.904 239.954 203.36C238.611 183.244 235.909 138.622 235.883 138.172C235.881 138.157 235.883 138.143 235.888 138.129C235.893 138.115 235.9 138.102 235.91 138.091C235.92 138.08 235.932 138.072 235.946 138.066C235.959 138.06 235.974 138.057 235.989 138.057C236.018 138.057 236.045 138.068 236.067 138.088C236.088 138.107 236.101 138.134 236.103 138.163C236.103 138.614 238.832 183.2 240.174 203.351C241.411 221.895 247.989 283.048 248.051 283.71C248.054 283.725 248.053 283.74 248.05 283.754C248.046 283.768 248.039 283.782 248.03 283.793C248.021 283.805 248.009 283.815 247.996 283.822C247.983 283.829 247.969 283.833 247.954 283.834V283.816Z" fill="black"/>
<path d="M223.334 49.0707C223.334 49.6093 222.999 50.042 222.645 50.042C222.292 50.042 222.036 49.6093 222.071 49.0707C222.107 48.532 222.407 48.0993 222.76 48.0993C223.113 48.0993 223.37 48.5408 223.334 49.0707Z" fill="#263238"/>
<path d="M217.276 49.0707C217.276 49.6093 216.932 50.042 216.588 50.042C216.243 50.042 215.978 49.6093 216.005 49.0707C216.031 48.532 216.349 48.0993 216.702 48.0993C217.056 48.0993 217.312 48.5408 217.276 49.0707Z" fill="#263238"/>
<path d="M219.184 49.3444C218.447 50.9893 217.497 52.5302 216.358 53.9275C217.241 54.8106 218.892 54.4044 218.892 54.4044L219.184 49.3444Z" fill="#DF5753"/>
<path d="M219.343 56.6562C219.322 56.6562 219.302 56.6521 219.283 56.644C219.264 56.6359 219.247 56.624 219.233 56.6092C219.219 56.5943 219.208 56.5767 219.201 56.5574C219.194 56.5382 219.191 56.5177 219.193 56.4973C219.195 56.4543 219.214 56.4139 219.245 56.3843C219.276 56.3547 219.317 56.3382 219.36 56.3383C220.036 56.343 220.704 56.1963 221.315 55.909C221.926 55.6217 222.465 55.2011 222.893 54.6781C222.923 54.6514 222.962 54.6367 223.003 54.6367C223.044 54.6367 223.083 54.6514 223.113 54.6781C223.142 54.7078 223.158 54.7473 223.158 54.7885C223.158 54.8297 223.142 54.8693 223.113 54.8989C222.656 55.4547 222.08 55.9011 221.427 56.2052C220.775 56.5092 220.063 56.6634 219.343 56.6562Z" fill="#263238"/>
<path d="M224.412 47.4458C224.369 47.4675 224.322 47.4788 224.275 47.4788C224.227 47.4788 224.18 47.4675 224.138 47.4458C223.807 47.2322 223.432 47.0994 223.04 47.058C222.649 47.0165 222.254 47.0677 221.886 47.2074C221.85 47.2253 221.811 47.2359 221.771 47.2384C221.731 47.241 221.691 47.2356 221.653 47.2224C221.615 47.2092 221.58 47.1886 221.551 47.1618C221.521 47.1349 221.497 47.1024 221.48 47.0661C221.447 46.9875 221.446 46.8992 221.478 46.82C221.509 46.7409 221.57 46.6771 221.648 46.6422C222.109 46.4536 222.61 46.3793 223.106 46.4254C223.603 46.4715 224.081 46.6368 224.5 46.9071C224.534 46.9301 224.563 46.9596 224.585 46.9939C224.607 47.0282 224.623 47.0666 224.63 47.1069C224.637 47.1471 224.637 47.1884 224.628 47.2284C224.619 47.2684 224.603 47.3063 224.579 47.3398C224.535 47.3905 224.476 47.4272 224.412 47.4458Z" fill="#263238"/>
<path d="M214.936 45.6797C214.889 45.6683 214.846 45.6438 214.813 45.6091C214.783 45.5803 214.76 45.5459 214.744 45.508C214.728 45.4701 214.72 45.4294 214.72 45.3883C214.72 45.3472 214.728 45.3065 214.744 45.2686C214.76 45.2306 214.783 45.1963 214.813 45.1675C215.151 44.7879 215.573 44.4916 216.044 44.3017C216.516 44.1117 217.025 44.0333 217.532 44.0725C217.573 44.0788 217.612 44.0933 217.647 44.1152C217.682 44.1372 217.711 44.166 217.735 44.1999C217.758 44.2339 217.774 44.2722 217.782 44.3126C217.789 44.3529 217.789 44.3945 217.78 44.4346C217.761 44.5163 217.713 44.5884 217.644 44.6372C217.576 44.6859 217.492 44.7081 217.409 44.6995C217.008 44.6742 216.606 44.7406 216.234 44.8936C215.862 45.0466 215.53 45.2822 215.263 45.5826C215.223 45.6273 215.171 45.66 215.113 45.6771C215.056 45.6943 214.994 45.6951 214.936 45.6797Z" fill="#263238"/>
<path d="M248.157 81.7706L238.973 79.3245C238.973 79.3245 229.966 101.498 226.778 102.938C222.451 104.916 211.492 111.768 206.83 115.009C206.574 116.113 206.777 119.036 207.36 119.84C215.307 118.391 230.522 112.537 233.701 109.561C240.951 102.77 248.157 81.7706 248.157 81.7706Z" fill="#E58A7B"/>
<path d="M241.746 300.4C241.298 300.435 240.851 300.314 240.483 300.056C240.37 299.953 240.285 299.822 240.237 299.677C240.189 299.531 240.179 299.376 240.21 299.225C240.215 299.132 240.246 299.041 240.299 298.963C240.352 298.886 240.425 298.824 240.51 298.784C241.252 298.404 243.327 299.72 243.565 299.87C243.591 299.886 243.612 299.911 243.623 299.939C243.634 299.968 243.635 299.999 243.627 300.029C243.62 300.06 243.604 300.088 243.583 300.111C243.561 300.135 243.534 300.152 243.503 300.162C242.928 300.303 242.339 300.383 241.746 300.4ZM240.863 299.022C240.796 299.008 240.727 299.008 240.66 299.022C240.626 299.04 240.598 299.066 240.579 299.099C240.56 299.132 240.552 299.17 240.554 299.208C240.53 299.311 240.534 299.418 240.565 299.518C240.596 299.619 240.653 299.71 240.731 299.782C241.075 300.091 241.94 300.126 243.08 299.905C242.401 299.459 241.637 299.158 240.837 299.022H240.863Z" fill="#4CAF4F"/>
<path d="M243.459 300.162C243.436 300.169 243.412 300.169 243.389 300.162C242.726 299.791 241.481 298.334 241.667 297.592C241.694 297.474 241.761 297.369 241.855 297.294C241.95 297.219 242.067 297.178 242.188 297.177C242.306 297.161 242.427 297.171 242.541 297.206C242.655 297.241 242.761 297.3 242.85 297.38C243.583 298.007 243.627 299.932 243.627 300.029C243.631 300.058 243.626 300.088 243.611 300.113C243.597 300.139 243.575 300.159 243.548 300.17C243.518 300.176 243.487 300.173 243.459 300.162ZM242.276 297.468H242.214C242.011 297.468 241.985 297.583 241.976 297.627C241.87 298.06 242.656 299.164 243.309 299.685C243.306 298.939 243.075 298.212 242.647 297.601C242.544 297.511 242.412 297.464 242.276 297.468Z" fill="#4CAF4F"/>
<path d="M218.301 299.296C217.76 299.485 217.172 299.485 216.632 299.296C216.509 299.23 216.405 299.133 216.329 299.016C216.254 298.899 216.209 298.764 216.199 298.625C216.188 298.538 216.199 298.449 216.231 298.367C216.264 298.285 216.317 298.213 216.384 298.157C217.091 297.521 219.979 298.157 220.305 298.281C220.336 298.289 220.364 298.307 220.383 298.333C220.402 298.358 220.412 298.39 220.411 298.422C220.413 298.455 220.404 298.488 220.387 298.516C220.369 298.544 220.344 298.567 220.314 298.581C219.664 298.874 218.99 299.114 218.301 299.296ZM216.861 298.245C216.76 298.266 216.666 298.311 216.588 298.378C216.559 298.399 216.538 298.427 216.525 298.46C216.513 298.493 216.51 298.529 216.517 298.563C216.523 298.656 216.552 298.746 216.601 298.824C216.65 298.903 216.719 298.968 216.799 299.014C217.268 299.261 218.354 299.067 219.758 298.475C218.812 298.236 217.833 298.159 216.861 298.245Z" fill="#4CAF4F"/>
<path d="M220.288 298.581H220.217C219.334 298.422 217.568 297.406 217.515 296.647C217.515 296.47 217.594 296.223 218.018 296.082C218.161 296.031 218.313 296.009 218.465 296.018C218.617 296.027 218.765 296.067 218.901 296.135C219.855 296.603 220.358 298.298 220.385 298.378C220.391 298.404 220.39 298.432 220.382 298.459C220.375 298.485 220.36 298.509 220.341 298.528C220.327 298.55 220.309 298.568 220.288 298.581ZM218.195 296.347H218.106C217.833 296.444 217.833 296.559 217.833 296.594C217.833 297.053 219.113 297.892 220.005 298.175C219.8 297.465 219.365 296.844 218.769 296.409C218.591 296.318 218.387 296.296 218.195 296.347Z" fill="#4CAF4F"/>
<path d="M207.58 114.488L198.37 118.727L197.301 121.376L200.701 123.663C200.701 123.663 207.059 122.974 208.87 118.886L207.58 114.488Z" fill="#E58A7B"/>
<path d="M207.969 119.99C207.763 118.22 207.179 116.515 206.256 114.992L207.713 113.897C208.809 115.652 209.508 117.626 209.762 119.681L207.969 119.99Z" fill="#263238"/>
<path d="M209.541 115.742C209.735 116.048 209.831 116.407 209.815 116.77C209.798 117.132 209.67 117.481 209.449 117.768C209.227 118.056 208.922 118.268 208.576 118.376C208.23 118.484 207.858 118.483 207.513 118.372C207.167 118.262 206.864 118.047 206.644 117.758C206.425 117.469 206.299 117.12 206.285 116.757C206.272 116.394 206.37 116.036 206.567 115.731C206.764 115.427 207.05 115.19 207.386 115.053C207.763 114.861 208.202 114.826 208.605 114.954C209.009 115.083 209.345 115.367 209.541 115.742Z" fill="#263238"/>
<path d="M192.144 122.153L193.372 123.389L201.637 119.857L198.37 118.727L192.144 122.153Z" fill="#E58A7B"/>
<path opacity="0.2" d="M227.635 283.56C227.688 283.56 228.889 286.933 228.889 286.933L216.667 292.073L214.742 288.487L227.635 283.56Z" fill="black"/>
<path opacity="0.2" d="M252.617 287.843C252.67 287.843 253.023 291.243 253.023 291.243H239.636L238.682 287.339L252.617 287.843Z" fill="black"/>
<path d="M250.55 79.2274C252.979 87.0602 243.486 97.7717 243.486 97.7717L230.372 92.4204C231.927 87.8931 233.719 83.451 235.741 79.1126C239.768 70.432 248.095 71.3239 250.55 79.2274Z" fill="#4CAF4F"/>
<path opacity="0.2" d="M250.55 79.2274C252.979 87.0602 243.486 97.7717 243.486 97.7717L230.372 92.4204C231.927 87.8931 233.719 83.451 235.741 79.1126C239.768 70.432 248.095 71.3239 250.55 79.2274Z" fill="black"/>
<path d="M120.245 0.749329H114.602V1.65889H120.245V0.749329Z" fill="#4CAF4F"/>
<path d="M193.291 36.7489L192.608 51.9045L193.516 51.9455L194.199 36.7898L193.291 36.7489Z" fill="#4CAF4F"/>
<path d="M191.535 4.8291H87.3333L77.6372 221.816H181.839L191.535 4.8291Z" fill="#4CAF4F"/>
<path opacity="0.56" d="M188.427 7.81384H84.2249L74.5289 224.801H178.731L188.427 7.81384Z" fill="#FAFAFA"/>
<path opacity="0.07" d="M185.318 10.7898H81.1165L71.4116 227.777H175.613L185.318 10.7898Z" fill="#4CAF4F"/>
<path d="M173.459 105.428H84.5163L83.7745 122.03H172.717L173.459 105.428Z" fill="white"/>
<path d="M133.429 93.3123H85.055L84.7283 100.739H133.103L133.429 93.3123Z" fill="#4CAF4F"/>
<path d="M171.454 150.235H82.5117L81.77 166.836H170.712L171.454 150.235Z" fill="white"/>
<path opacity="0.47" d="M155.144 189.257H95.3338L94.442 209.153H154.252L155.144 189.257Z" fill="#4CAF4F"/>
<path d="M151.144 212.244H91.3336C91.3075 212.25 91.2802 212.25 91.2541 212.244C91.2454 212.218 91.2454 212.19 91.2541 212.164L92.1372 192.26C92.1371 192.246 92.1399 192.233 92.1453 192.22C92.1507 192.208 92.1587 192.197 92.1687 192.188C92.1787 192.179 92.1904 192.172 92.2033 192.167C92.2161 192.163 92.2297 192.161 92.2431 192.163H152.053C152.064 192.157 152.076 192.154 152.089 192.154C152.101 192.154 152.113 192.157 152.124 192.163C152.13 192.173 152.133 192.186 152.133 192.198C152.133 192.21 152.13 192.223 152.124 192.233L151.258 212.182C151.248 212.202 151.231 212.219 151.211 212.231C151.19 212.242 151.167 212.246 151.144 212.244ZM91.4396 212.032H151.038L151.921 192.339H92.3226L91.4396 212.032Z" fill="white"/>
<path d="M122.983 138.119H83.0504L82.7237 145.554H122.647L122.983 138.119Z" fill="#4CAF4F"/>
<path d="M154.005 51.7993C153.776 56.6309 152.058 61.2734 149.086 65.0895C146.886 67.9719 144.054 70.312 140.809 71.93C137.564 73.548 133.991 74.401 130.365 74.4235C127.435 74.4458 124.531 73.868 121.832 72.7256C119.134 71.5832 116.698 69.9004 114.674 67.7809C112.651 65.6614 111.083 63.15 110.066 60.4015C109.05 57.6529 108.607 54.7255 108.765 51.7993C109.076 45.7274 111.694 40.0034 116.085 35.798C120.476 31.5927 126.308 29.2235 132.387 29.1752C135.32 29.1478 138.227 29.7221 140.929 30.8626C143.63 32.003 146.07 33.6853 148.096 35.8057C150.122 37.926 151.691 40.4392 152.708 43.1901C153.724 45.941 154.165 48.8711 154.005 51.7993Z" fill="white"/>
<path d="M156.133 33.9085C156.075 35.1932 155.618 36.4279 154.826 37.4407C154.24 38.2063 153.486 38.8278 152.623 39.2579C151.76 39.6879 150.81 39.9151 149.846 39.9221C148.911 39.9278 147.99 39.7046 147.162 39.2721C146.333 38.8395 145.624 38.2108 145.095 37.4407C144.394 36.4002 144.047 35.1616 144.106 33.9085C144.191 32.2963 144.888 30.7775 146.055 29.6617C147.221 28.5459 148.77 27.9171 150.384 27.9036C151.163 27.8965 151.935 28.0489 152.653 28.3515C153.37 28.6541 154.018 29.1005 154.557 29.663C155.096 30.2256 155.513 30.8925 155.784 31.6227C156.055 32.3528 156.174 33.1307 156.133 33.9085Z" fill="#4CAF4F"/>
<path d="M94.0975 113.729C94.0551 114.44 93.7445 115.109 93.2283 115.601C92.7121 116.093 92.0287 116.37 91.3159 116.378C90.9717 116.382 90.6304 116.316 90.3129 116.182C89.9955 116.049 89.7087 115.853 89.4704 115.604C89.232 115.356 89.0471 115.061 88.9271 114.739C88.8071 114.416 88.7545 114.072 88.7727 113.729C88.8109 113.016 89.1203 112.344 89.6374 111.852C90.1545 111.359 90.8402 111.083 91.5543 111.08C91.8981 111.077 92.2389 111.144 92.5557 111.278C92.8726 111.411 93.1588 111.608 93.3969 111.856C93.635 112.104 93.82 112.398 93.9405 112.72C94.0609 113.042 94.1144 113.385 94.0975 113.729Z" fill="#263238"/>
<path d="M106.001 113.729C105.961 114.441 105.651 115.111 105.134 115.603C104.618 116.095 103.933 116.372 103.22 116.378C102.876 116.381 102.536 116.313 102.219 116.18C101.903 116.046 101.617 115.849 101.38 115.601C101.143 115.353 100.958 115.059 100.839 114.737C100.719 114.415 100.667 114.072 100.685 113.729C100.723 113.017 101.032 112.347 101.547 111.855C102.062 111.362 102.746 111.085 103.458 111.08C103.802 111.075 104.144 111.142 104.461 111.275C104.778 111.408 105.065 111.605 105.304 111.853C105.542 112.101 105.727 112.396 105.847 112.719C105.967 113.041 106.019 113.385 106.001 113.729Z" fill="#263238"/>
<path d="M117.914 113.729C117.873 114.441 117.563 115.111 117.047 115.603C116.53 116.095 115.846 116.372 115.132 116.378C114.788 116.381 114.448 116.313 114.131 116.18C113.814 116.046 113.528 115.85 113.29 115.601C113.051 115.353 112.867 115.059 112.746 114.737C112.626 114.415 112.572 114.072 112.589 113.729C112.629 113.016 112.939 112.346 113.456 111.854C113.973 111.362 114.657 111.085 115.371 111.08C115.715 111.075 116.056 111.142 116.374 111.275C116.691 111.408 116.978 111.605 117.216 111.853C117.455 112.101 117.639 112.396 117.759 112.719C117.879 113.041 117.932 113.385 117.914 113.729Z" fill="#263238"/>
<path d="M92.093 158.536C92.0506 159.247 91.74 159.916 91.2238 160.408C90.7075 160.899 90.0242 161.177 89.3113 161.185C88.9675 161.188 88.6268 161.12 88.3099 160.987C87.9931 160.853 87.7068 160.656 87.4687 160.408C87.2306 160.16 87.0457 159.866 86.9252 159.544C86.8047 159.222 86.7513 158.879 86.7681 158.536C86.8085 157.823 87.1185 157.153 87.6351 156.661C88.1517 156.169 88.8363 155.892 89.5498 155.886C89.8936 155.883 90.2343 155.951 90.5512 156.084C90.868 156.218 91.1543 156.415 91.3924 156.663C91.6305 156.911 91.8154 157.205 91.9359 157.527C92.0564 157.849 92.1098 158.192 92.093 158.536Z" fill="#263238"/>
<path d="M103.997 158.536C103.956 159.246 103.648 159.915 103.133 160.407C102.618 160.899 101.936 161.177 101.224 161.185C100.88 161.189 100.538 161.122 100.221 160.989C99.9035 160.856 99.6167 160.659 99.3784 160.411C99.14 160.163 98.9551 159.868 98.8351 159.546C98.7151 159.223 98.6625 158.879 98.6807 158.536C98.721 157.823 99.031 157.153 99.5477 156.661C100.064 156.169 100.749 155.892 101.462 155.886C101.806 155.883 102.146 155.951 102.463 156.084C102.779 156.218 103.065 156.415 103.302 156.663C103.539 156.911 103.724 157.206 103.843 157.528C103.963 157.85 104.015 158.193 103.997 158.536Z" fill="#263238"/>
<path d="M115.936 158.536C115.895 159.248 115.585 159.918 115.069 160.41C114.552 160.902 113.868 161.179 113.154 161.185C112.811 161.186 112.47 161.118 112.154 160.984C111.838 160.85 111.552 160.653 111.314 160.406C111.077 160.158 110.892 159.864 110.771 159.543C110.65 159.221 110.595 158.879 110.611 158.536C110.653 157.824 110.964 157.155 111.48 156.663C111.996 156.172 112.68 155.894 113.393 155.886C113.737 155.882 114.078 155.949 114.395 156.082C114.713 156.215 115 156.412 115.238 156.66C115.476 156.908 115.661 157.203 115.781 157.525C115.901 157.848 115.954 158.192 115.936 158.536Z" fill="#263238"/>
<path d="M127.822 158.536C127.779 159.247 127.469 159.916 126.953 160.408C126.436 160.899 125.753 161.177 125.04 161.185C124.697 161.186 124.357 161.118 124.04 160.984C123.724 160.85 123.438 160.653 123.201 160.405C122.963 160.158 122.778 159.864 122.657 159.543C122.536 159.221 122.481 158.879 122.497 158.536C122.539 157.824 122.85 157.155 123.366 156.663C123.882 156.172 124.566 155.894 125.279 155.886C125.622 155.883 125.963 155.951 126.28 156.084C126.597 156.218 126.883 156.415 127.121 156.663C127.359 156.911 127.544 157.205 127.665 157.527C127.785 157.849 127.839 158.192 127.822 158.536Z" fill="#263238"/>
<path d="M139.779 158.536C139.736 159.247 139.426 159.916 138.909 160.408C138.393 160.899 137.71 161.177 136.997 161.185C136.653 161.189 136.311 161.122 135.994 160.989C135.677 160.856 135.39 160.659 135.151 160.411C134.913 160.163 134.728 159.868 134.608 159.546C134.488 159.223 134.436 158.879 134.454 158.536C134.494 157.823 134.804 157.153 135.321 156.661C135.837 156.169 136.522 155.892 137.235 155.886C137.579 155.883 137.92 155.951 138.237 156.084C138.554 156.218 138.84 156.415 139.078 156.663C139.316 156.911 139.501 157.205 139.621 157.527C139.742 157.849 139.795 158.192 139.779 158.536Z" fill="#263238"/>
<path d="M137.971 50.621C141.667 47.0066 141.864 41.2131 138.409 37.6809C134.955 34.1486 129.159 34.2153 125.463 37.8297C121.766 41.4442 121.57 47.2377 125.025 50.7699C128.479 54.3021 134.275 54.2355 137.971 50.621Z" fill="#4CAF4F"/>
<path d="M149.086 65.0895C146.886 67.9719 144.054 70.312 140.809 71.93C137.564 73.548 133.991 74.401 130.365 74.4235C126.849 74.4533 123.379 73.6175 120.262 71.9897C117.145 70.3619 114.477 67.9922 112.492 65.0895C116.784 60.8155 123.574 58.025 131.098 58.025C138.622 58.025 145.174 60.8155 149.086 65.0895Z" fill="#4CAF4F"/>
<path opacity="0.1" d="M137.971 50.621C141.667 47.0066 141.864 41.2131 138.409 37.6809C134.955 34.1486 129.159 34.2153 125.463 37.8297C121.766 41.4442 121.57 47.2377 125.025 50.7699C128.479 54.3021 134.275 54.2355 137.971 50.621Z" fill="white"/>
<path opacity="0.1" d="M149.086 65.0895C146.886 67.9719 144.054 70.312 140.809 71.93C137.564 73.548 133.991 74.401 130.365 74.4235C126.849 74.4533 123.379 73.6175 120.262 71.9897C117.145 70.3619 114.477 67.9922 112.492 65.0895C116.784 60.8155 123.574 58.025 131.098 58.025C138.622 58.025 145.174 60.8155 149.086 65.0895Z" fill="white"/>
<path d="M19.1606 126.03C18.3217 127.867 17.4386 129.889 16.6704 131.849C15.9021 133.81 15.1162 135.832 14.4362 137.845C13.0479 141.813 11.9905 145.889 11.2748 150.032L11.0806 151.33C11.062 151.552 11.083 151.777 11.1424 151.992C11.3508 152.724 11.679 153.416 12.1137 154.041C13.2478 155.657 14.5633 157.139 16.0346 158.456C17.5857 159.899 19.2129 161.258 20.9091 162.527C22.6046 163.834 24.3884 165.106 26.1457 166.306L24.4943 169.406C20.2982 167.578 16.3153 165.295 12.6171 162.598C10.6441 161.159 8.86348 159.473 7.3187 157.582C6.40304 156.456 5.689 155.18 5.20818 153.811C4.92861 152.956 4.78556 152.062 4.7843 151.162C4.7843 150.95 4.7843 150.641 4.7843 150.491V150.058L4.87261 149.175C5.37887 144.574 6.34627 140.036 7.76024 135.629C8.44903 133.456 9.18197 131.293 10.0209 129.182C10.8598 127.072 11.7252 125.006 12.7937 122.86L19.1606 126.03Z" fill="#E58A7B"/>
<path d="M24.9006 165.759L31.1438 162.598L29.5278 169.45C29.5278 169.45 25.245 170.651 23.2581 168.567L24.9006 165.759Z" fill="#E58A7B"/>
<path d="M36.8572 163.719L35.1971 169.388L29.5278 169.45L31.1438 162.598L36.8572 163.719Z" fill="#E58A7B"/>
<path d="M45.6702 92.9679C46.0042 94.1917 46.469 95.3759 47.0567 96.5002C46.885 96.6949 46.6638 96.8395 46.4167 96.9188C46.1695 96.9981 45.9055 97.009 45.6526 96.9505L45.6702 92.9679Z" fill="#DF5753"/>
<path d="M45.4848 93.0209C45.8506 93.0209 46.1471 92.5662 46.1471 92.0053C46.1471 91.4445 45.8506 90.9898 45.4848 90.9898C45.119 90.9898 44.8225 91.4445 44.8225 92.0053C44.8225 92.5662 45.119 93.0209 45.4848 93.0209Z" fill="#263238"/>
<path d="M45.2905 91.0251L46.6328 90.6454C46.6328 90.6454 45.9793 91.6874 45.2905 91.0251Z" fill="#263238"/>
<path d="M28.4239 99.4496C29.2275 103.556 30.0311 111.088 27.1523 113.835C27.1523 113.835 28.2827 118.003 35.9212 118.003C44.3191 118.003 39.9303 113.835 39.9303 113.835C35.3472 112.74 35.462 109.34 36.2656 106.143L28.4239 99.4496Z" fill="#E58A7B"/>
<path d="M26.1898 90.0891C26.6137 96.9505 26.649 99.8646 30.1106 103.388C35.3296 108.686 43.6657 106.673 45.2994 99.8558C46.7741 93.6744 45.838 83.5014 39.1179 80.7728C37.6428 80.1651 36.0371 79.9438 34.4526 80.1297C32.8681 80.3157 31.3572 80.9028 30.0629 81.8355C28.7686 82.7682 27.7336 84.0157 27.0559 85.46C26.3782 86.9042 26.0801 88.4975 26.1898 90.0891Z" fill="#E58A7B"/>
<path d="M26.8698 82.3711C23.4258 83.625 18.8339 82.689 20.6353 93.3123C22.5427 104.563 19.611 108.263 19.611 108.263C19.611 108.263 32.6715 111.044 46.0058 108.095C46.0058 108.095 41.9349 100.977 43.074 95.7319C44.5311 89.1089 43.3831 86.6628 43.3831 86.6628C43.3831 86.6628 31.709 80.605 26.8698 82.3711Z" fill="#263238"/>
<path d="M41.4404 93.6655C41.444 94.9702 41.8175 96.247 42.5177 97.3479C43.4538 98.7785 44.5576 98.231 44.8313 96.7121C45.0786 95.3787 44.8932 93.0209 43.701 92.1025C42.5089 91.1841 41.458 92.0848 41.4404 93.6655Z" fill="#E58A7B"/>
<path d="M23.8762 83.5279C22.8872 80.7462 27.6027 76.4634 37.5814 78.2295C47.56 79.9956 47.9927 88.3053 47.9927 88.3053L45.9793 85.9033L46.0677 88.4289L35.8153 90.3981L23.8762 83.5279Z" fill="#263238"/>
<path d="M24.7239 114.303C24.665 113.9 24.7659 113.489 25.0051 113.159C25.2443 112.829 25.6028 112.606 26.0044 112.537C29.1128 112.024 36.1773 110.982 39.7272 111.477C42.3764 111.848 43.0652 113.384 43.18 114.647C43.198 114.868 43.1684 115.091 43.0933 115.299C43.0182 115.508 42.8992 115.698 42.7445 115.857C42.5897 116.016 42.4027 116.14 42.196 116.221C41.9894 116.302 41.7678 116.337 41.5463 116.325L26.1987 115.636C25.8368 115.618 25.4924 115.475 25.2237 115.232C24.955 114.989 24.7784 114.661 24.7239 114.303Z" fill="#4CAF4F"/>
<path opacity="0.6" d="M24.7239 114.303C24.665 113.9 24.7659 113.489 25.0051 113.159C25.2443 112.829 25.6028 112.606 26.0044 112.537C29.1128 112.024 36.1773 110.982 39.7272 111.477C42.3764 111.848 43.0652 113.384 43.18 114.647C43.198 114.868 43.1684 115.091 43.0933 115.299C43.0182 115.508 42.8992 115.698 42.7445 115.857C42.5897 116.016 42.4027 116.14 42.196 116.221C41.9894 116.302 41.7678 116.337 41.5463 116.325L26.1987 115.636C25.8368 115.618 25.4924 115.475 25.2237 115.232C24.955 114.989 24.7784 114.661 24.7239 114.303Z" fill="black"/>
<path d="M33.5988 268.574L39.2945 272.53L48.8228 259.611L43.127 255.664L33.5988 268.574Z" fill="#E58A7B"/>
<path d="M20.3174 268.318L26.3311 271.745L34.7644 258.084L28.7507 254.657L20.3174 268.318Z" fill="#E58A7B"/>
<path d="M48.8139 259.611L43.9041 266.27L38.2083 262.322L43.1182 255.664L48.8139 259.611Z" fill="#CF6F64"/>
<path d="M28.7419 254.657L34.7644 258.092L30.4197 265.13L24.3972 261.695L28.7419 254.657Z" fill="#CF6F64"/>
<path d="M38.4026 157.432C38.4026 157.432 60.6382 185.451 56.4613 212.252C53.0968 233.896 33.5811 263.205 33.5811 263.205L24.406 258.649C30.8731 245.69 36.3921 232.279 40.9194 218.522C42.3155 214.251 42.7229 209.719 42.111 205.267C41.4991 200.815 39.8838 196.561 37.3871 192.825C26.1192 176.373 8.06931 186.167 20.2115 157.432H38.4026Z" fill="#4CAF4F"/>
<path opacity="0.6" d="M38.4026 157.432C38.4026 157.432 60.6382 185.451 56.4613 212.252C53.0968 233.896 33.5811 263.205 33.5811 263.205L24.406 258.649C30.8731 245.69 36.3921 232.279 40.9194 218.522C42.3155 214.251 42.7229 209.719 42.111 205.267C41.4991 200.815 39.8838 196.561 37.3871 192.825C26.1192 176.373 8.06931 186.167 20.2115 157.432H38.4026Z" fill="black"/>
<path opacity="0.4" d="M49.3085 175.429L46.0765 172.214C46.0765 172.47 52.3374 211.122 54.0947 221.984C55.1317 218.811 55.9258 215.564 56.4702 212.27C58.5365 199.121 54.2183 185.69 49.3085 175.429Z" fill="black"/>
<path d="M48.3283 157.432C48.3283 157.432 75.1028 192.648 75.8623 213.762C76.4892 231.424 46.7211 265.643 46.7211 265.643L38.067 260.044C38.067 260.044 55.4899 235.742 59.8788 215.891C58.1833 196.216 22.3308 157.432 22.3308 157.432H48.3283Z" fill="#4CAF4F"/>
<path opacity="0.6" d="M48.3283 157.432C48.3283 157.432 75.1028 192.648 75.8623 213.762C76.4892 231.424 46.7211 265.643 46.7211 265.643L38.067 260.044C38.067 260.044 55.4899 235.742 59.8788 215.891C58.1833 196.216 22.3308 157.432 22.3308 157.432H48.3283Z" fill="black"/>
<path d="M15.2045 115.407C12.3433 116.087 9.59698 126.489 9.59698 126.489L20.7854 133.96C20.7854 133.96 24.512 125.73 23.205 122.127C21.8539 118.374 18.7985 114.55 15.2045 115.407Z" fill="#4CAF4F"/>
<path opacity="0.2" d="M17.3945 122.109L16.6174 131.178L20.7766 133.969C21.925 131.383 22.7753 128.675 23.311 125.897L17.3945 122.109Z" fill="black"/>
<path d="M51.6398 115.61C51.6398 115.61 54.9424 116.766 48.3283 157.423H20.1938C20.6706 145.943 20.6795 138.878 15.2045 115.407C19.1439 114.595 23.137 114.069 27.1524 113.835C31.4062 113.53 35.6764 113.53 39.9303 113.835C45.423 114.338 51.6398 115.61 51.6398 115.61Z" fill="#4CAF4F"/>
<path d="M54.5009 122.109C55.1367 123.875 55.8078 125.774 56.5143 127.602C57.2207 129.43 57.8919 131.311 58.6071 133.165L60.7706 138.711L61.3181 140.097L61.6007 140.786L61.7332 141.13C61.7332 141.192 61.7332 141.192 61.7332 141.183C61.5718 140.956 61.3603 140.768 61.115 140.636C60.7657 140.43 60.3719 140.312 59.9671 140.291C59.6307 140.281 59.2961 140.344 58.9869 140.477C58.5806 140.662 58.5806 140.742 58.5895 140.733C58.6629 140.674 58.7282 140.606 58.7838 140.53C59.2726 139.888 59.6956 139.199 60.0465 138.472C60.4616 137.66 60.859 136.794 61.2563 135.92C62.0334 134.154 62.7487 132.326 63.464 130.48C64.1793 128.635 64.8592 126.772 65.5215 124.891L67.5349 119.257L70.9347 120.14C70.2636 124.167 69.3982 128.087 68.3562 132.079C67.8528 134.066 67.2612 136.035 66.59 138.022C66.2545 139.02 65.8836 140.009 65.4597 141.024C65.0179 142.126 64.4739 143.185 63.8349 144.186C63.6 144.523 63.3402 144.841 63.0578 145.139C62.6068 145.626 62.0595 146.014 61.4506 146.279C60.9103 146.51 60.325 146.619 59.7375 146.596C59.0793 146.572 58.4381 146.38 57.8742 146.04C57.2089 145.625 56.6568 145.052 56.267 144.371C56.1345 144.142 56.0198 143.912 55.9403 143.744L55.7725 143.409L55.4369 142.72L54.7658 141.351C53.8827 139.514 52.9997 137.66 52.2314 135.797C51.4631 133.933 50.6507 132.044 49.8913 130.145C49.1319 128.246 48.4519 126.348 47.8073 124.299L54.5009 122.109Z" fill="#E58A7B"/>
<path d="M51.6398 115.61C55.0219 116.413 58.8279 126.41 58.8279 126.41L48.7698 134.966C48.7698 134.966 42.2616 124.069 43.5774 120.475C44.9461 116.731 47.2244 114.559 51.6398 115.61Z" fill="#4CAF4F"/>
<path d="M69.1333 116.095L72.6656 113.146L75.1205 116.97L73.3102 120.157C73.3102 120.157 70.4314 122.807 67.8882 121.456C67.4846 120.548 67.3877 119.534 67.6124 118.567C67.8371 117.6 68.3711 116.732 69.1333 116.095Z" fill="#E58A7B"/>
<path d="M79.0413 113.155L78.7763 114.117L73.1865 115.053L72.639 113.146L79.0413 113.155Z" fill="#E58A7B"/>
<path d="M47.4099 266.093L37.3253 259.576L39.1355 256.432L50.4653 263.4L47.4099 266.093Z" fill="#4CAF4F"/>
<path d="M30.2784 271.285C29.3936 271.177 28.5434 270.876 27.7882 270.402C27.757 270.391 27.73 270.371 27.7109 270.344C27.6917 270.317 27.6815 270.285 27.6815 270.252C27.6815 270.219 27.6917 270.187 27.7109 270.16C27.73 270.133 27.757 270.113 27.7882 270.102C28.0619 270.014 30.4374 269.281 31.1262 269.846C31.2036 269.91 31.2624 269.994 31.2966 270.089C31.3307 270.184 31.339 270.286 31.3204 270.385C31.3082 270.544 31.2555 270.697 31.1674 270.83C31.0793 270.963 30.9587 271.071 30.8171 271.144C30.6517 271.234 30.4668 271.283 30.2784 271.285ZM28.2915 270.314C29.3953 270.879 30.2784 271.082 30.7023 270.87C30.7946 270.819 30.8723 270.745 30.9279 270.656C30.9835 270.566 31.0153 270.464 31.0202 270.358C31.0202 270.217 31.0202 270.155 30.9407 270.12C30.5698 269.819 29.2452 270.049 28.2739 270.314H28.2915Z" fill="#263238"/>
<path d="M27.85 270.464C27.8034 270.463 27.7589 270.444 27.7263 270.411C27.7132 270.387 27.7063 270.359 27.7063 270.332C27.7063 270.304 27.7132 270.277 27.7263 270.252C27.7263 270.173 28.3003 268.256 29.201 267.824C29.3161 267.771 29.4411 267.744 29.5675 267.744C29.694 267.744 29.8189 267.771 29.934 267.824C30.058 267.863 30.1653 267.942 30.239 268.05C30.3126 268.157 30.3482 268.286 30.3402 268.415C30.2784 269.21 28.6624 270.305 27.9206 270.491L27.85 270.464ZM29.5631 268.053C29.4772 268.056 29.3929 268.077 29.3158 268.115C28.7683 268.38 28.318 269.413 28.0972 270.04C28.8743 269.713 29.9428 268.848 29.9781 268.362C29.9781 268.283 29.9781 268.186 29.775 268.097C29.709 268.062 29.6373 268.038 29.5631 268.027V268.053Z" fill="#263238"/>
<path d="M42.8797 275.1C41.8819 275.1 40.4955 273.82 39.736 273.034C39.7166 273.007 39.7062 272.974 39.7062 272.941C39.7062 272.908 39.7166 272.875 39.736 272.848C39.7535 272.82 39.7782 272.797 39.8078 272.781C39.8373 272.766 39.8705 272.758 39.9038 272.76C40.257 272.76 43.3213 273.219 43.754 274.085C43.7998 274.162 43.824 274.251 43.824 274.341C43.824 274.431 43.7998 274.519 43.754 274.597C43.6891 274.732 43.591 274.848 43.469 274.934C43.347 275.021 43.205 275.075 43.0563 275.091L42.8797 275.1ZM40.3188 273.157C41.4315 274.235 42.4117 274.835 42.968 274.765C43.0655 274.752 43.1583 274.715 43.2383 274.658C43.3184 274.602 43.3833 274.526 43.4272 274.438C43.447 274.408 43.4575 274.372 43.4575 274.336C43.4575 274.3 43.447 274.265 43.4272 274.235C43.1976 273.758 41.564 273.352 40.3188 273.157Z" fill="#263238"/>
<path d="M40.416 273.113C40.2178 273.119 40.0195 273.104 39.8244 273.069C39.7971 273.065 39.7714 273.054 39.7497 273.037C39.728 273.02 39.7111 272.997 39.7007 272.972C39.6875 272.946 39.6807 272.917 39.6807 272.888C39.6807 272.859 39.6875 272.83 39.7007 272.804C39.7537 272.742 40.9459 271.303 42.0762 271.206C42.3962 271.181 42.7132 271.282 42.9592 271.488C43.3036 271.789 43.286 272.054 43.1977 272.221C42.9769 272.822 41.4492 273.113 40.416 273.113ZM40.1864 272.787C41.1755 272.84 42.7561 272.513 42.9592 272.08C42.9592 272.08 43.0299 271.939 42.8003 271.745C42.7089 271.665 42.6022 271.605 42.4867 271.569C42.3713 271.532 42.2496 271.52 42.1292 271.533C41.3677 271.745 40.6897 272.186 40.1864 272.795V272.787Z" fill="#263238"/>
<path d="M28.0884 269.51L20.6 267.391C20.4709 267.352 20.332 267.362 20.2098 267.419C20.0875 267.476 19.9907 267.576 19.9377 267.7L17.4122 273.378C17.3528 273.524 17.325 273.68 17.3304 273.837C17.3359 273.994 17.3745 274.148 17.4437 274.289C17.513 274.43 17.6112 274.555 17.7321 274.655C17.853 274.755 17.9938 274.829 18.1451 274.871C20.7943 275.559 22.0659 275.754 25.3597 276.699C27.3908 277.264 30.2872 278.315 33.0866 279.109C35.8859 279.904 36.8219 277.175 35.7358 276.593C30.8259 273.996 30.4374 272.177 29.0951 270.234C28.8547 269.883 28.4984 269.626 28.0884 269.51Z" fill="#4CAF4F"/>
<path d="M39.9391 272.001L33.5457 267.585C33.4373 267.506 33.3037 267.47 33.1703 267.483C33.0368 267.496 32.9127 267.558 32.8216 267.656L28.5829 272.213C28.4796 272.33 28.4026 272.469 28.3569 272.619C28.3112 272.768 28.298 272.926 28.318 273.082C28.3381 273.237 28.391 273.386 28.4732 273.52C28.5554 273.653 28.6651 273.767 28.7949 273.855C31.0467 275.365 32.2123 275.974 35.0293 277.926C36.7954 279.127 40.2129 281.794 42.5972 283.454C44.9814 285.114 46.7564 282.836 45.9087 281.935C42.1115 277.882 41.2814 275.339 40.6544 273.034C40.5456 272.616 40.2922 272.25 39.9391 272.001Z" fill="#4CAF4F"/>
<path d="M34.7556 263.788L23.2316 258.057L24.4237 254.931L36.7336 260.971L34.7556 263.788Z" fill="#4CAF4F"/>
<path d="M19.7699 155.771L18.7985 158.315C18.7014 158.509 18.931 158.712 19.2577 158.712H48.4696C48.7256 158.712 48.9376 158.588 48.9552 158.43L49.2025 155.904C49.2025 155.736 48.9994 155.586 48.7256 155.586H20.2291C20.1433 155.578 20.0568 155.591 19.9769 155.623C19.897 155.655 19.826 155.706 19.7699 155.771Z" fill="#4CAF4F"/>
<path opacity="0.4" d="M19.7699 155.771L18.7985 158.315C18.7014 158.509 18.931 158.712 19.2577 158.712H48.4696C48.7256 158.712 48.9376 158.588 48.9552 158.43L49.2025 155.904C49.2025 155.736 48.9994 155.586 48.7256 155.586H20.2291C20.1433 155.578 20.0568 155.591 19.9769 155.623C19.897 155.655 19.826 155.706 19.7699 155.771Z" fill="white"/>
<path d="M24.3707 158.959H23.6025C23.4523 158.959 23.3375 158.88 23.3464 158.783L23.7084 155.507C23.7084 155.418 23.8497 155.339 23.9998 155.339H24.7681C24.9182 155.339 25.033 155.418 25.0242 155.507L24.6621 158.783C24.6533 158.88 24.5208 158.959 24.3707 158.959Z" fill="#4CAF4F"/>
<path d="M42.3853 158.959H41.6258C41.4757 158.959 41.3609 158.88 41.3697 158.783L41.723 155.507C41.723 155.418 41.8731 155.339 42.0232 155.339H42.7827C42.9328 155.339 43.0564 155.418 43.0387 155.507L42.6855 158.783C42.6414 158.88 42.5442 158.959 42.3853 158.959Z" fill="#4CAF4F"/>
<g style="mix-blend-mode:multiply">
<path d="M23.6996 308.507C36.7652 308.507 47.3569 307.74 47.3569 306.793C47.3569 305.847 36.7652 305.08 23.6996 305.08C10.634 305.08 0.0422363 305.847 0.0422363 306.793C0.0422363 307.74 10.634 308.507 23.6996 308.507Z" fill="#F5F5F5"/>
</g>
<path d="M38.1112 304.374C33.9255 303.155 29.2805 301.592 26.4724 299.958C26.3929 299.905 26.3046 299.879 26.2251 299.835V280.884H34.6937C35.3366 280.846 35.9406 280.564 36.3823 280.095C36.824 279.627 37.07 279.007 37.07 278.363C37.07 277.719 36.824 277.099 36.3823 276.631C35.9406 276.162 35.3366 275.88 34.6937 275.842H26.2693V189.46H21.1828V275.842H12.7672C12.4236 275.822 12.0794 275.872 11.7558 275.989C11.4323 276.107 11.1362 276.289 10.8857 276.525C10.6352 276.761 10.4356 277.046 10.2992 277.362C10.1627 277.678 10.0924 278.019 10.0924 278.363C10.0924 278.707 10.1627 279.048 10.2992 279.364C10.4356 279.68 10.6352 279.965 10.8857 280.201C11.1362 280.437 11.4323 280.619 11.7558 280.737C12.0794 280.854 12.4236 280.905 12.7672 280.884H21.1828V299.808C21.1033 299.808 21.0239 299.879 20.9444 299.932C18.0921 301.592 13.4825 303.155 9.29675 304.347C9.014 304.433 8.77121 304.617 8.61233 304.866C8.45345 305.115 8.38899 305.412 8.43061 305.705C8.47224 305.997 8.6172 306.265 8.83925 306.46C9.06131 306.655 9.34577 306.764 9.64115 306.767H37.7668C38.0491 306.748 38.3162 306.632 38.5236 306.44C38.731 306.247 38.8661 305.99 38.9064 305.71C38.9467 305.43 38.8898 305.144 38.745 304.901C38.6003 304.658 38.3766 304.472 38.1112 304.374Z" fill="#E0E0E0"/>
<path d="M39.4093 180.665H8.00751C5.4812 180.665 3.43323 182.713 3.43323 185.239V194.573C3.43323 197.1 5.4812 199.148 8.00751 199.148H39.4093C41.9356 199.148 43.9836 197.1 43.9836 194.573V185.239C43.9836 182.713 41.9356 180.665 39.4093 180.665Z" fill="#4CAF4F"/>
<path d="M7.71606 199.156V200.764C7.71606 202.088 9.15547 203.166 10.9216 203.166H36.5305C38.2966 203.166 39.736 202.088 39.736 200.764V199.156H7.71606Z" fill="#4CAF4F"/>
<path opacity="0.3" d="M7.71606 199.156V200.764C7.71606 202.088 9.15547 203.166 10.9216 203.166H36.5305C38.2966 203.166 39.736 202.088 39.736 200.764V199.156H7.71606Z" fill="white"/>
</svg>
