<svg width="316" height="429" viewBox="0 0 316 429" fill="none" xmlns="http://www.w3.org/2000/svg">
<path d="M248.441 302.606C232.473 291.454 228.855 270.753 229.486 252.139C229.589 249.038 229.248 245.752 230.726 243.034C232.204 240.315 235.656 238.445 238.436 239.747C240.741 240.832 241.743 243.519 243.035 245.741C244.759 248.701 247.285 251.112 250.322 252.697C252.296 253.731 254.745 254.351 256.699 253.276C259.386 251.798 259.696 248.108 259.675 245.008C259.675 239.24 259.641 233.48 259.572 227.727C259.386 224.638 259.7 221.539 260.502 218.549C261.463 215.614 263.602 212.896 266.527 212.069C269.452 211.242 273.101 212.948 273.762 215.965C273.876 217.244 273.907 218.528 273.855 219.81C273.938 221.102 274.537 222.518 275.746 222.911C276.956 223.303 278.217 222.404 279.147 221.495C282.33 218.394 284.5 214.353 286.516 210.364C288.531 206.374 290.505 202.271 293.399 198.871C296.293 195.471 300.293 192.773 304.768 192.515C309.243 192.256 313.904 195.006 315.02 199.346C316.137 203.687 313.604 208.121 310.886 211.645C306.785 216.877 301.95 221.489 296.531 225.34C295.473 225.917 294.629 226.819 294.123 227.913C293.451 229.98 295.404 232.047 297.44 232.698C299.745 233.463 302.246 233.225 304.675 233.515C307.104 233.804 309.687 234.858 310.607 237.132C311.868 240.295 309.222 243.602 306.628 245.772C301.419 250.113 295.504 253.528 289.141 255.87C286.867 256.697 284.48 257.431 282.64 259.022C280.8 260.614 279.705 263.394 280.811 265.575C281.917 267.755 284.759 268.448 287.146 268.004C289.534 267.559 291.652 266.278 293.926 265.42C298.174 263.818 303.652 264.107 306.328 267.776C307.158 269.04 307.683 270.479 307.862 271.98C308.041 273.481 307.87 275.003 307.362 276.427C306.328 279.26 304.736 281.857 302.68 284.064C295.911 292.152 287.116 298.297 277.193 301.872C267.344 305.283 258.218 306.213 248.43 302.627" fill="#4CAF4F"/>
<path d="M310.473 195.068C310.473 195.068 310.38 195.171 310.173 195.357L309.253 196.173C308.447 196.897 307.259 197.951 305.76 199.346C301.511 203.291 297.566 207.551 293.957 212.09C291.652 214.953 289.265 218.198 286.722 221.722C284.18 225.247 281.555 229.05 278.95 233.091C276.174 237.352 273.631 241.762 271.333 246.299C270.134 248.666 269.08 251.136 267.995 253.658L264.791 261.358C260.568 271.057 256.89 280.984 253.774 291.092C251.264 299.364 249.534 307.851 248.606 316.445C248.005 322.244 247.908 328.085 248.317 333.901C248.482 335.968 248.637 337.549 248.782 338.624C248.844 339.141 248.885 339.555 248.926 339.854V340.278C248.882 340.144 248.851 340.005 248.833 339.865C248.782 339.565 248.72 339.162 248.637 338.645C248.451 337.611 248.255 335.979 248.069 333.911C247.57 328.085 247.605 322.224 248.172 316.404C249.042 307.773 250.734 299.246 253.226 290.937C256.316 280.8 259.984 270.848 264.212 261.131L267.499 253.462C268.584 250.95 269.649 248.459 270.858 246.082C273.171 241.531 275.735 237.111 278.537 232.843C281.183 228.709 283.849 224.967 286.361 221.474C288.872 217.981 291.301 214.715 293.595 211.862C297.241 207.336 301.239 203.106 305.553 199.212C307.083 197.837 308.302 196.804 309.129 196.111L310.09 195.336C310.208 195.234 310.336 195.144 310.473 195.068Z" fill="#263238"/>
<path d="M270.992 246.062C270.846 245.636 270.746 245.196 270.692 244.749C270.527 243.891 270.341 242.682 270.124 241.111C269.68 238.011 269.225 233.763 268.739 229.06C268.253 224.358 267.706 220.1 267.251 217.03C267.013 215.5 266.806 214.27 266.662 213.413C266.549 212.974 266.49 212.522 266.486 212.069C266.664 212.483 266.792 212.917 266.868 213.361C267.096 214.208 267.354 215.428 267.644 216.968C268.233 220.069 268.811 224.285 269.297 228.998C269.783 233.711 270.196 237.845 270.517 241.059C270.672 242.506 270.806 243.736 270.91 244.718C270.99 245.161 271.018 245.612 270.992 246.062Z" fill="#263238"/>
<path d="M310.762 238.641C310.259 238.751 309.747 238.813 309.233 238.827C308.199 238.92 306.732 239.044 304.913 239.251C301.275 239.644 296.272 240.367 290.784 241.401C285.296 242.434 280.366 243.602 276.821 244.501C275.054 244.956 273.628 245.369 272.687 245.648C272.185 245.827 271.665 245.951 271.137 246.02C271.615 245.78 272.113 245.583 272.625 245.431C273.597 245.09 275.002 244.615 276.759 244.108C280.284 243.075 285.214 241.845 290.722 240.791C295.389 239.898 300.097 239.243 304.83 238.827C306.659 238.672 308.137 238.61 309.171 238.589C309.702 238.553 310.235 238.571 310.762 238.641Z" fill="#263238"/>
<path d="M253.732 290.214C253.622 290.064 253.532 289.901 253.464 289.728L252.781 288.292C252.192 287.041 251.397 285.191 250.446 282.928C248.523 278.38 246.074 272.014 243.469 264.944C240.865 257.875 238.467 251.508 236.648 246.909C235.759 244.677 235.025 242.847 234.478 241.483L233.899 240.005C233.819 239.835 233.763 239.654 233.734 239.468C233.844 239.617 233.934 239.781 234.002 239.954L234.684 241.39C235.263 242.641 236.069 244.491 237.02 246.754C238.943 251.302 241.392 257.668 243.996 264.738C246.601 271.807 248.999 278.173 250.818 282.773C251.707 285.005 252.44 286.834 252.978 288.199C253.216 288.788 253.412 289.232 253.567 289.677C253.647 289.847 253.703 290.028 253.732 290.214Z" fill="#263238"/>
<path d="M306.525 273.192C306.359 273.287 306.182 273.36 305.998 273.409L304.468 273.926L298.815 275.755C294.04 277.305 287.446 279.517 280.211 281.956C272.977 284.395 266.352 286.566 261.546 288.013C259.148 288.746 257.195 289.304 255.841 289.677L254.28 290.08C254.099 290.137 253.912 290.175 253.722 290.193C253.887 290.098 254.065 290.025 254.249 289.976L255.779 289.46L261.432 287.63C266.207 286.08 272.801 283.868 280.036 281.429C287.27 278.99 293.885 276.819 298.691 275.373C301.099 274.639 303.042 274.081 304.406 273.709L305.967 273.305C306.148 273.248 306.335 273.21 306.525 273.192Z" fill="#263238"/>
<path d="M284.986 22.4893L279.663 24.391L277.379 17.4353C273.183 4.60927 259.809 -2.20167 247.521 2.12881C235.232 6.45928 228.69 20.5256 232.886 33.3516L235.17 40.3073L229.827 42.2193C227.789 43.0096 226.135 44.5547 225.207 46.5334C224.279 48.5121 224.15 50.7722 224.845 52.844L239.656 98.1021C239.963 99.1277 240.473 100.081 241.157 100.905C241.84 101.73 242.682 102.409 243.632 102.901C244.583 103.394 245.623 103.69 246.69 103.773C247.758 103.856 248.831 103.724 249.846 103.383L305.005 83.6534C307.07 82.8645 308.748 81.3057 309.687 79.3049C310.625 77.3041 310.752 75.0173 310.039 72.9254L295.218 27.6672C294.903 26.6445 294.384 25.6958 293.694 24.8777C293.004 24.0597 292.156 23.389 291.201 22.9057C290.247 22.4225 289.204 22.1365 288.136 22.065C287.068 21.9934 285.997 22.1377 284.986 22.4893ZM242.942 29.724C241.811 26.389 242.014 22.7456 243.509 19.557C245.004 16.3685 247.675 13.8822 250.962 12.6191C252.586 12.0637 254.304 11.841 256.015 11.9642C257.727 12.0875 259.395 12.5542 260.922 13.3364C262.449 14.1187 263.803 15.2005 264.903 16.5174C266.002 17.8342 266.826 19.3591 267.323 21.001L269.597 27.9566L245.216 36.6796L242.942 29.724ZM273.948 69.8868L277.731 81.4416C277.8 81.6733 277.778 81.9229 277.668 82.1384C277.558 82.354 277.37 82.519 277.142 82.5992L271.84 84.4905C271.629 84.549 271.403 84.5236 271.21 84.4196C271.018 84.3155 270.873 84.1409 270.806 83.9324L266.992 72.4293C264.89 72.3147 262.872 71.5604 261.209 70.2675C259.547 68.9745 258.319 67.2046 257.691 65.1946C256.792 62.5373 256.956 59.6353 258.148 57.0962C259.341 54.5571 261.469 52.5778 264.088 51.5727C265.381 51.1309 266.75 50.954 268.113 51.0524C269.476 51.1508 270.805 51.5227 272.021 52.1457C273.237 52.7687 274.316 53.6302 275.192 54.6788C276.068 55.7275 276.724 56.9417 277.121 58.2493C277.786 60.2911 277.841 62.4825 277.279 64.555C276.717 66.6276 275.563 68.4913 273.958 69.9178L273.948 69.8868Z" fill="#4CAF4F"/>
<path d="M279.426 24.267C279.426 24.4116 269.556 28.122 257.277 32.5352C244.999 36.9483 234.984 40.4933 234.932 40.39C234.881 40.2866 244.803 36.5452 257.091 32.1218C269.38 27.6983 279.374 24.1326 279.426 24.267Z" fill="#263238"/>
<path d="M291.146 26.1686C291.191 26.2583 291.229 26.3517 291.26 26.4477C291.342 26.6544 291.435 26.9231 291.559 27.2538C291.828 28.0083 292.2 29.0522 292.665 30.3544L296.634 41.9092C298.288 46.8082 300.262 52.6166 302.453 59.0658C303.486 62.3007 304.706 65.67 305.843 69.215C306.451 71.0418 306.714 72.966 306.618 74.8891C306.53 75.8892 306.246 76.8622 305.781 77.7519C305.284 78.6388 304.621 79.4213 303.827 80.0567C302.23 81.2223 300.458 82.1259 298.577 82.7335L293.254 84.6456L283.177 88.2526L266.114 94.3297L254.59 98.3811L251.489 99.4146L250.663 99.6834C250.574 99.7227 250.48 99.7471 250.384 99.7557C250.384 99.7557 250.466 99.7557 250.642 99.6317L251.448 99.3113L254.549 98.1434L266.011 93.9266L283.043 87.7255L293.099 84.0875L298.422 82.1651C300.25 81.5822 301.971 80.706 303.517 79.571C304.255 78.9814 304.873 78.255 305.336 77.4315C305.774 76.6086 306.038 75.7045 306.111 74.7754C306.207 72.9225 305.954 71.0681 305.367 69.308C304.251 65.794 303.073 62.3937 302.008 59.1588C299.859 52.6993 297.874 46.8702 296.303 41.9713C294.732 37.0723 293.409 33.1346 292.5 30.3648C292.066 29.0108 291.735 27.9566 291.466 27.1918L291.218 26.365C291.187 26.3024 291.163 26.2365 291.146 26.1686Z" fill="#263238"/>
<path d="M262.042 11.9163C262.042 11.9163 261.494 11.6476 260.481 11.2342C259.037 10.6795 257.511 10.372 255.965 10.3247C253.673 10.2461 251.393 10.6767 249.288 11.5856C246.728 12.7173 244.54 14.5477 242.973 16.8669C241.396 19.1794 240.55 21.9123 240.545 24.7114C240.566 27.0055 240.914 29.2849 241.578 31.481C242.115 33.362 242.674 34.8606 243.046 35.9045C243.265 36.4347 243.445 36.9805 243.583 37.5374C243.289 37.0417 243.044 36.5191 242.849 35.9768C242.425 34.9433 241.816 33.4757 241.216 31.5843C240.48 29.3652 240.08 27.0487 240.028 24.7114C240 21.8066 240.866 18.9635 242.508 16.5672C244.129 14.1633 246.407 12.2762 249.071 11.1308C251.242 10.217 253.593 9.81391 255.944 9.9526C257.523 10.0331 259.075 10.4008 260.523 11.0378C260.91 11.2164 261.283 11.4236 261.639 11.6579C261.786 11.7225 261.922 11.8097 262.042 11.9163Z" fill="#263238"/>
<path d="M262.517 52.3582C262.682 52.2582 262.855 52.1718 263.034 52.0998C263.551 51.8664 264.087 51.6762 264.636 51.5314C265.507 51.2743 266.406 51.1216 267.313 51.0766C268.547 51.0103 269.781 51.1967 270.94 51.6244C273.586 52.5546 276.015 55.2521 277.214 58.8591C277.789 60.7948 277.789 62.8558 277.214 64.7915C276.576 66.8924 275.434 68.8051 273.886 70.3622L273.948 70.0832C275.323 73.8556 276.821 77.9483 278.372 82.2168L278.465 82.4752L278.206 82.5682L275.839 83.3537L270.672 85.0796L270.413 85.1623L270.331 84.9039C268.915 80.6252 267.364 76.6357 266.197 72.7187L266.424 72.8944C264.403 72.7265 262.477 71.9682 260.884 70.7136C259.443 69.6038 258.262 68.1929 257.422 66.5795C256.664 65.1487 256.287 63.5472 256.326 61.9286C256.374 60.2744 256.787 58.6513 257.536 57.1754C258.285 55.6995 259.35 54.4074 260.657 53.3917C261.195 52.9552 261.798 52.6063 262.445 52.3582C261.861 52.7046 261.295 53.0806 260.75 53.4847C259.315 54.699 258.215 56.2612 257.556 58.0219C256.991 59.3496 256.726 60.7861 256.782 62.2281C256.837 63.6702 257.211 65.0821 257.877 66.3625C258.702 67.9146 259.856 69.2688 261.256 70.3312C262.776 71.5237 264.612 72.2426 266.538 72.3983H266.713L266.765 72.5533C267.902 76.398 269.463 80.4184 270.899 84.7179L270.558 84.5526L275.726 82.8266L278.082 82.0307L277.917 82.3821C276.377 78.1137 274.889 74.0106 273.524 70.2382V70.0832L273.648 69.9592C275.151 68.4666 276.271 66.6337 276.914 64.6158C277.462 62.7642 277.462 60.7934 276.914 58.9418C275.788 55.4691 273.462 52.8336 270.94 51.9034C269.824 51.473 268.632 51.2726 267.437 51.3143C266.544 51.3348 265.656 51.4561 264.791 51.6761C263.251 52.0585 262.528 52.4099 262.517 52.3582Z" fill="#263238"/>
<path d="M230.571 350.779L127.332 350.303C121.37 350.27 115.665 347.873 111.469 343.637C107.274 339.4 104.931 333.672 104.956 327.71L106.052 68.9049C106.064 65.9512 106.658 63.0288 107.8 60.3048C108.943 57.5808 110.61 55.1086 112.709 53.0296C114.807 50.9506 117.294 49.3055 120.029 48.1883C122.763 47.0711 125.691 46.5038 128.645 46.5188L231.873 46.9942C237.835 47.0243 243.541 49.4194 247.739 53.6536C251.936 57.8878 254.281 63.6147 254.259 69.5767L253.164 328.372C253.152 331.326 252.558 334.25 251.416 336.975C250.274 339.7 248.606 342.174 246.508 344.254C244.41 346.335 241.923 347.982 239.188 349.102C236.454 350.221 233.526 350.791 230.571 350.779Z" fill="#455A64"/>
<path d="M231.718 55.8929H211.709C211.056 55.905 210.412 56.0456 209.814 56.3066C209.215 56.5677 208.674 56.9441 208.221 57.4144C207.768 57.8847 207.412 58.4396 207.173 59.0475C206.935 59.6554 206.819 60.3043 206.831 60.9571V64.5848C206.843 65.2372 206.727 65.8856 206.488 66.4928C206.249 67.1001 205.893 67.6544 205.44 68.1238C204.987 68.5933 204.446 68.9687 203.847 69.2287C203.249 69.4887 202.605 69.628 201.953 69.6388L162.947 69.4631C161.628 69.4279 160.376 68.8704 159.467 67.9132C158.558 66.9559 158.067 65.677 158.1 64.3574V60.7298C158.133 59.4119 157.643 58.1346 156.736 57.1776C155.83 56.2206 154.581 55.662 153.263 55.6241H146.225L128.707 55.5415C124.54 55.5167 120.533 57.1439 117.563 60.067C114.594 62.9901 112.904 66.9707 112.863 71.1374L111.829 323.752C111.82 325.819 112.217 327.868 113 329.781C113.782 331.695 114.933 333.435 116.388 334.903C117.843 336.372 119.573 337.539 121.479 338.339C123.385 339.139 125.43 339.555 127.497 339.565L230.519 340.04C232.588 340.05 234.638 339.652 236.552 338.869C238.467 338.086 240.209 336.934 241.678 335.478C243.147 334.022 244.316 332.291 245.116 330.384C245.916 328.476 246.333 326.43 246.343 324.362L247.376 71.7472C247.401 67.5688 245.765 63.5515 242.829 60.5786C239.893 57.6056 235.897 55.9202 231.718 55.8929Z" fill="white"/>
<path d="M217.859 306.337L141.254 306.006C140.458 306.006 139.817 305.138 139.827 304.084L139.91 284.044C139.91 283.01 140.561 282.121 141.357 282.121L217.962 282.473C218.403 282.549 218.797 282.793 219.063 283.153C219.329 283.513 219.445 283.962 219.388 284.406L219.316 304.425C219.316 305.489 218.654 306.347 217.859 306.337Z" fill="#4CAF4F"/>
<path d="M164.544 296.124C164.122 296.124 163.715 296.057 163.325 295.921C162.94 295.78 162.642 295.601 162.43 295.384L162.666 294.921C162.867 295.116 163.135 295.281 163.471 295.417C163.813 295.547 164.17 295.612 164.544 295.612C164.902 295.612 165.192 295.569 165.414 295.482C165.642 295.39 165.807 295.268 165.91 295.116C166.019 294.964 166.073 294.796 166.073 294.612C166.073 294.39 166.008 294.211 165.878 294.075C165.753 293.94 165.588 293.834 165.382 293.758C165.176 293.677 164.948 293.606 164.699 293.547C164.45 293.487 164.2 293.425 163.951 293.36C163.701 293.289 163.471 293.197 163.26 293.083C163.054 292.969 162.886 292.82 162.756 292.636C162.631 292.446 162.568 292.2 162.568 291.896C162.568 291.614 162.642 291.357 162.788 291.124C162.94 290.885 163.17 290.695 163.479 290.554C163.788 290.408 164.184 290.335 164.666 290.335C164.986 290.335 165.303 290.381 165.618 290.473C165.932 290.56 166.203 290.682 166.431 290.839L166.228 291.319C165.984 291.156 165.723 291.037 165.447 290.961C165.176 290.885 164.913 290.847 164.658 290.847C164.317 290.847 164.035 290.893 163.813 290.985C163.59 291.078 163.425 291.202 163.317 291.359C163.214 291.511 163.162 291.685 163.162 291.88C163.162 292.102 163.224 292.281 163.349 292.417C163.479 292.552 163.647 292.658 163.853 292.734C164.065 292.81 164.295 292.877 164.544 292.937C164.794 292.997 165.04 293.062 165.284 293.132C165.534 293.203 165.761 293.295 165.967 293.409C166.179 293.517 166.347 293.663 166.472 293.848C166.602 294.032 166.667 294.273 166.667 294.571C166.667 294.848 166.591 295.105 166.439 295.344C166.287 295.577 166.054 295.767 165.74 295.913C165.431 296.054 165.032 296.124 164.544 296.124ZM167.978 296.076V290.384H168.579V296.076H167.978ZM170.431 296.076V290.384H170.927L174.855 295.328H174.595V290.384H175.188V296.076H174.692L170.773 291.132H171.033V296.076H170.431ZM179.542 296.124C179.109 296.124 178.707 296.054 178.339 295.913C177.976 295.767 177.659 295.563 177.388 295.303C177.122 295.043 176.913 294.737 176.761 294.384C176.615 294.032 176.542 293.647 176.542 293.23C176.542 292.812 176.615 292.427 176.761 292.075C176.913 291.723 177.125 291.416 177.396 291.156C177.667 290.896 177.984 290.695 178.347 290.554C178.716 290.408 179.117 290.335 179.55 290.335C179.984 290.335 180.38 290.403 180.738 290.538C181.101 290.674 181.41 290.88 181.665 291.156L181.291 291.538C181.052 291.3 180.789 291.129 180.502 291.026C180.214 290.923 179.906 290.872 179.575 290.872C179.222 290.872 178.897 290.931 178.599 291.051C178.306 291.164 178.049 291.33 177.827 291.547C177.61 291.758 177.439 292.007 177.314 292.295C177.195 292.576 177.135 292.888 177.135 293.23C177.135 293.566 177.195 293.877 177.314 294.165C177.439 294.452 177.61 294.704 177.827 294.921C178.049 295.132 178.306 295.298 178.599 295.417C178.897 295.531 179.22 295.588 179.567 295.588C179.892 295.588 180.198 295.539 180.486 295.441C180.778 295.344 181.047 295.178 181.291 294.945L181.632 295.401C181.361 295.639 181.044 295.821 180.681 295.946C180.317 296.065 179.938 296.124 179.542 296.124ZM181.055 295.328V293.23H181.632V295.401L181.055 295.328ZM187.756 296.124C187.03 296.124 186.458 295.916 186.04 295.498C185.623 295.081 185.414 294.463 185.414 293.644V290.384H186.016V293.62C186.016 294.292 186.168 294.788 186.471 295.108C186.775 295.428 187.203 295.588 187.756 295.588C188.315 295.588 188.745 295.428 189.049 295.108C189.353 294.788 189.504 294.292 189.504 293.62V290.384H190.09V293.644C190.09 294.463 189.881 295.081 189.464 295.498C189.052 295.916 188.483 296.124 187.756 296.124ZM191.903 296.076V290.384H194.033C194.516 290.384 194.931 290.462 195.278 290.62C195.624 290.771 195.89 290.994 196.074 291.286C196.264 291.574 196.359 291.923 196.359 292.335C196.359 292.736 196.264 293.083 196.074 293.376C195.89 293.663 195.624 293.886 195.278 294.043C194.931 294.2 194.516 294.279 194.033 294.279H192.236L192.505 293.994V296.076H191.903ZM192.505 294.043L192.236 293.75H194.017C194.586 293.75 195.017 293.628 195.31 293.384C195.608 293.135 195.757 292.785 195.757 292.335C195.757 291.88 195.608 291.528 195.31 291.278C195.017 291.029 194.586 290.904 194.017 290.904H192.236L192.505 290.62V294.043Z" fill="#E8E8E3"/>
<path d="M156.533 130.152L129.951 130.031L129.929 134.91L156.511 135.03L156.533 130.152Z" fill="#4CAF4F"/>
<path opacity="0.1" d="M156.533 130.152L129.951 130.031L129.929 134.91L156.511 135.03L156.533 130.152Z" fill="black"/>
<path d="M234.457 160.103C234.666 160.082 234.871 160.034 235.067 159.959C235.353 159.847 235.602 159.657 235.784 159.41C235.967 159.163 236.077 158.87 236.1 158.563C236.1 156.92 236.1 154.522 236.1 151.442C236.1 149.902 236.1 148.176 236.1 146.275C236.1 145.81 236.1 145.324 236.1 144.838C236.168 144.367 236.065 143.887 235.811 143.484C235.669 143.291 235.484 143.134 235.27 143.024C235.057 142.915 234.821 142.857 234.581 142.854H232.969H218.034L131.59 142.533C131.369 142.53 131.15 142.579 130.952 142.678C130.754 142.777 130.583 142.923 130.453 143.102C130.204 143.506 130.108 143.987 130.184 144.456C130.184 145.489 130.184 146.523 130.184 147.556C130.184 149.623 130.184 151.69 130.184 153.757C130.184 154.791 130.184 155.825 130.184 156.858C130.142 157.339 130.142 157.824 130.184 158.305C130.239 158.511 130.34 158.703 130.479 158.864C130.619 159.025 130.794 159.152 130.991 159.235C131.194 159.316 131.412 159.355 131.631 159.349H136.892L159.847 159.473L198.707 159.711L224.907 159.917L232.028 160H233.878C234.302 160 234.509 160 234.509 160H233.878H232.028H224.907H198.707L159.847 159.876L136.892 159.783H131.631C131.342 159.795 131.053 159.745 130.784 159.638C130.512 159.522 130.27 159.345 130.076 159.121C129.883 158.898 129.743 158.632 129.668 158.346C129.608 158.075 129.587 157.797 129.606 157.52V156.755C129.606 155.721 129.606 154.688 129.606 153.654C129.606 151.587 129.606 149.52 129.606 147.453C129.606 146.419 129.606 145.386 129.606 144.352C129.586 144.077 129.586 143.801 129.606 143.526C129.644 143.222 129.762 142.933 129.947 142.688C130.125 142.439 130.361 142.236 130.635 142.098C130.908 141.959 131.211 141.889 131.518 141.893L217.962 142.368L232.896 142.471H234.509C234.793 142.472 235.073 142.54 235.324 142.672C235.576 142.803 235.793 142.993 235.956 143.226C236.247 143.675 236.365 144.215 236.286 144.745C236.286 145.231 236.286 145.717 236.286 146.182C236.286 148.063 236.286 149.789 236.286 151.349C236.286 154.45 236.214 156.827 236.193 158.481C236.168 158.799 236.052 159.103 235.86 159.357C235.668 159.612 235.407 159.806 235.108 159.917C234.913 160.039 234.687 160.103 234.457 160.103Z" fill="#E0E0E0"/>
<path d="M186.553 147.722H137.936V152.28H186.553V147.722Z" fill="#4CAF4F"/>
<path opacity="0.2" d="M186.553 147.722H137.936V152.28H186.553V147.722Z" fill="white"/>
<path d="M156.352 174.654L129.77 174.534L129.748 179.412L156.33 179.532L156.352 174.654Z" fill="#4CAF4F"/>
<path opacity="0.1" d="M156.352 174.654L129.77 174.534L129.748 179.412L156.33 179.532L156.352 174.654Z" fill="black"/>
<path d="M233.785 204.607C233.994 204.581 234.201 204.543 234.405 204.493C234.694 204.401 234.96 204.249 235.184 204.045C235.409 203.842 235.587 203.593 235.708 203.315C235.87 202.898 235.934 202.449 235.894 202.002C235.894 201.506 235.894 200.969 235.894 200.37C235.894 199.171 235.894 197.806 235.894 196.235V189.673C235.943 189.197 235.838 188.719 235.594 188.308C235.339 187.887 234.938 187.574 234.467 187.43C233.953 187.338 233.428 187.31 232.907 187.347H218.034L131.89 187.027C131.427 187.028 130.979 187.197 130.631 187.503C130.284 187.809 130.059 188.231 129.999 188.691C129.999 189.673 129.999 190.758 129.999 191.791C129.999 193.858 129.999 195.925 129.999 197.992C129.999 199.026 129.999 200.059 129.999 201.093C129.96 201.576 129.981 202.062 130.061 202.54C130.19 202.959 130.455 203.323 130.815 203.573C131.197 203.816 131.645 203.931 132.097 203.904H133.533H136.52L159.392 204.018L198.118 204.256L224.225 204.462L231.325 204.545H224.225H198.118L159.371 204.504L136.499 204.421H132.004C131.445 204.454 130.89 204.305 130.422 203.997C129.952 203.671 129.609 203.193 129.451 202.643C129.358 202.118 129.33 201.584 129.368 201.052C129.368 200.018 129.368 198.985 129.368 197.951C129.368 195.884 129.368 193.817 129.368 191.75C129.368 190.716 129.368 189.683 129.368 188.649C129.443 188.058 129.732 187.515 130.179 187.121C130.626 186.728 131.201 186.51 131.797 186.51L217.941 186.985L232.814 187.099C233.368 187.065 233.923 187.103 234.467 187.213C235.004 187.388 235.457 187.756 235.739 188.246C236.006 188.701 236.122 189.23 236.069 189.755C236.069 190.241 236.069 190.716 236.069 191.192C236.069 193.062 236.069 194.778 236.069 196.359C236.069 197.941 236.069 199.274 236.069 200.494C236.069 201.083 236.069 201.63 236.069 202.137C236.107 202.599 236.032 203.063 235.852 203.491C235.718 203.776 235.524 204.029 235.283 204.232C235.042 204.435 234.761 204.584 234.457 204.669C234.231 204.688 234.004 204.667 233.785 204.607Z" fill="#E0E0E0"/>
<path d="M156.152 221.089L129.57 220.969L129.548 225.847L156.13 225.967L156.152 221.089Z" fill="#4CAF4F"/>
<path opacity="0.1" d="M156.152 221.089L129.57 220.969L129.548 225.847L156.13 225.967L156.152 221.089Z" fill="black"/>
<path d="M233.578 251.023C233.787 250.998 233.995 250.96 234.199 250.909C234.486 250.818 234.751 250.666 234.975 250.465C235.2 250.264 235.379 250.017 235.501 249.741C235.663 249.324 235.727 248.875 235.687 248.429C235.687 247.922 235.687 247.395 235.687 246.785C235.687 245.597 235.687 244.222 235.687 242.651V236.088C235.736 235.613 235.631 235.135 235.387 234.724C235.126 234.31 234.727 234.003 234.261 233.856C233.746 233.76 233.222 233.729 232.7 233.763H217.828L131.683 233.442C131.22 233.443 130.773 233.613 130.425 233.919C130.077 234.225 129.852 234.647 129.792 235.106C129.792 236.14 129.792 237.173 129.792 238.207C129.792 240.274 129.792 242.341 129.792 244.408C129.792 245.442 129.792 246.475 129.792 247.509C129.753 247.988 129.774 248.471 129.854 248.945C129.978 249.367 130.244 249.732 130.608 249.979C130.988 250.227 131.438 250.343 131.89 250.309H136.386L159.258 250.434L197.984 250.671L224.091 250.878L231.191 250.961H224.091H197.984L159.258 250.847L136.386 250.754H131.89C131.33 250.792 130.774 250.643 130.309 250.33C129.838 250.004 129.495 249.526 129.337 248.976C129.244 248.451 129.217 247.917 129.254 247.385C129.254 246.351 129.254 245.318 129.254 244.284C129.254 242.217 129.254 240.15 129.254 238.083C129.254 237.049 129.254 236.016 129.254 234.931C129.327 234.341 129.614 233.797 130.059 233.403C130.504 233.01 131.078 232.792 131.673 232.791L217.817 233.267L232.69 233.38C233.243 233.346 233.799 233.385 234.343 233.494C234.88 233.669 235.333 234.038 235.615 234.528C235.882 234.983 235.998 235.511 235.945 236.037C235.945 236.522 235.945 237.008 235.945 237.473C235.945 239.344 235.945 241.059 235.945 242.641C235.945 244.222 235.945 245.555 235.945 246.775C235.945 247.364 235.945 247.912 235.945 248.418C235.985 248.88 235.91 249.345 235.728 249.772C235.594 250.057 235.4 250.31 235.159 250.513C234.918 250.717 234.637 250.866 234.333 250.95C234.091 251.033 233.832 251.058 233.578 251.023Z" fill="#E0E0E0"/>
<path d="M185.515 193.514L136.899 193.293L136.878 197.851L185.495 198.072L185.515 193.514Z" fill="#4CAF4F"/>
<path opacity="0.2" d="M185.515 193.514L136.899 193.293L136.878 197.851L185.495 198.072L185.515 193.514Z" fill="white"/>
<path d="M141.295 242.589C141.264 243.005 141.113 243.402 140.858 243.733C140.604 244.063 140.258 244.311 139.864 244.447C139.47 244.582 139.044 244.599 138.641 244.495C138.237 244.391 137.873 244.171 137.593 243.862C137.313 243.553 137.13 243.168 137.067 242.756C137.004 242.344 137.063 241.923 137.237 241.544C137.411 241.165 137.693 240.846 138.046 240.626C138.4 240.405 138.811 240.294 139.228 240.305C139.804 240.337 140.344 240.595 140.731 241.022C141.117 241.45 141.32 242.013 141.295 242.589Z" fill="#4CAF4F"/>
<path d="M147.878 242.62C147.899 242.911 147.859 243.204 147.761 243.479C147.664 243.755 147.511 244.007 147.312 244.22C147.112 244.434 146.871 244.604 146.603 244.721C146.336 244.837 146.047 244.897 145.755 244.897C145.462 244.897 145.174 244.837 144.906 244.721C144.638 244.604 144.397 244.434 144.198 244.22C143.998 244.007 143.845 243.755 143.748 243.479C143.65 243.204 143.61 242.911 143.631 242.62C143.61 242.329 143.65 242.036 143.748 241.761C143.845 241.486 143.998 241.233 144.198 241.02C144.397 240.806 144.638 240.636 144.906 240.519C145.174 240.403 145.462 240.343 145.755 240.343C146.047 240.343 146.336 240.403 146.603 240.519C146.871 240.636 147.112 240.806 147.312 241.02C147.511 241.233 147.664 241.486 147.761 241.761C147.859 242.036 147.899 242.329 147.878 242.62Z" fill="#4CAF4F"/>
<path d="M154.472 242.651C154.442 243.067 154.29 243.464 154.036 243.795C153.781 244.125 153.435 244.373 153.041 244.509C152.647 244.644 152.222 244.661 151.818 244.557C151.414 244.453 151.05 244.233 150.77 243.924C150.491 243.615 150.308 243.23 150.245 242.818C150.181 242.406 150.24 241.985 150.415 241.606C150.589 241.227 150.87 240.908 151.224 240.688C151.578 240.467 151.989 240.356 152.405 240.367C152.98 240.402 153.519 240.66 153.905 241.087C154.291 241.514 154.495 242.076 154.472 242.651Z" fill="#4CAF4F"/>
<path d="M161.056 242.682C161.025 243.098 160.874 243.495 160.619 243.826C160.365 244.156 160.019 244.404 159.625 244.54C159.231 244.675 158.805 244.692 158.402 244.588C157.998 244.484 157.634 244.264 157.354 243.955C157.074 243.646 156.891 243.261 156.828 242.849C156.765 242.437 156.824 242.016 156.998 241.637C157.172 241.258 157.454 240.939 157.808 240.719C158.161 240.499 158.572 240.387 158.989 240.398C159.564 240.433 160.102 240.691 160.488 241.118C160.875 241.545 161.079 242.107 161.056 242.682Z" fill="#4CAF4F"/>
<path d="M167.64 242.703C167.611 243.119 167.461 243.518 167.207 243.85C166.954 244.181 166.609 244.431 166.215 244.568C165.821 244.705 165.395 244.724 164.99 244.621C164.586 244.518 164.221 244.298 163.94 243.989C163.659 243.681 163.476 243.296 163.412 242.884C163.348 242.471 163.406 242.049 163.58 241.67C163.754 241.291 164.036 240.971 164.39 240.75C164.744 240.53 165.155 240.418 165.572 240.429C166.145 240.464 166.682 240.721 167.068 241.146C167.454 241.57 167.659 242.129 167.64 242.703Z" fill="#4CAF4F"/>
<path d="M174.233 242.734C174.205 243.148 174.057 243.545 173.806 243.876C173.555 244.206 173.213 244.457 172.821 244.596C172.43 244.734 172.007 244.756 171.604 244.657C171.2 244.559 170.835 244.344 170.552 244.041C170.269 243.737 170.081 243.357 170.011 242.948C169.941 242.538 169.992 242.118 170.158 241.737C170.324 241.357 170.598 241.033 170.946 240.806C171.293 240.579 171.7 240.459 172.115 240.46C172.697 240.482 173.247 240.733 173.644 241.159C174.041 241.585 174.253 242.152 174.233 242.734Z" fill="#4CAF4F"/>
<path d="M180.817 242.765C180.837 243.056 180.797 243.349 180.7 243.624C180.602 243.899 180.449 244.152 180.25 244.365C180.051 244.579 179.81 244.749 179.542 244.866C179.274 244.982 178.985 245.042 178.693 245.042C178.401 245.042 178.112 244.982 177.844 244.866C177.576 244.749 177.335 244.579 177.136 244.365C176.937 244.152 176.784 243.899 176.686 243.624C176.589 243.349 176.549 243.056 176.569 242.765C176.549 242.473 176.589 242.181 176.686 241.906C176.784 241.63 176.937 241.378 177.136 241.164C177.335 240.951 177.576 240.78 177.844 240.664C178.112 240.548 178.401 240.487 178.693 240.487C178.985 240.487 179.274 240.548 179.542 240.664C179.81 240.78 180.051 240.951 180.25 241.164C180.449 241.378 180.602 241.63 180.7 241.906C180.797 242.181 180.837 242.473 180.817 242.765Z" fill="#4CAF4F"/>
<path d="M187.401 242.796C187.372 243.21 187.224 243.607 186.973 243.938C186.722 244.268 186.38 244.519 185.989 244.658C185.597 244.796 185.174 244.818 184.771 244.719C184.367 244.621 184.002 244.406 183.719 244.103C183.436 243.799 183.248 243.419 183.178 243.01C183.108 242.6 183.159 242.18 183.325 241.799C183.491 241.419 183.765 241.095 184.113 240.868C184.46 240.641 184.867 240.521 185.282 240.522C185.864 240.544 186.414 240.795 186.811 241.221C187.208 241.647 187.42 242.214 187.401 242.796Z" fill="#4CAF4F"/>
<path d="M193.984 242.827C193.956 243.243 193.805 243.642 193.552 243.974C193.299 244.305 192.954 244.555 192.559 244.692C192.165 244.829 191.74 244.848 191.335 244.745C190.931 244.642 190.565 244.422 190.285 244.113C190.004 243.805 189.82 243.42 189.756 243.008C189.692 242.595 189.751 242.173 189.925 241.794C190.099 241.415 190.38 241.095 190.734 240.874C191.089 240.654 191.5 240.542 191.917 240.553C192.49 240.588 193.027 240.845 193.413 241.27C193.799 241.694 194.004 242.253 193.984 242.827Z" fill="#4CAF4F"/>
<g opacity="0.2">
<path d="M141.295 242.589C141.264 243.005 141.113 243.402 140.858 243.733C140.604 244.063 140.258 244.311 139.864 244.447C139.47 244.582 139.044 244.599 138.641 244.495C138.237 244.391 137.873 244.171 137.593 243.862C137.313 243.553 137.13 243.168 137.067 242.756C137.004 242.344 137.063 241.923 137.237 241.544C137.411 241.165 137.693 240.846 138.046 240.626C138.4 240.405 138.811 240.294 139.228 240.305C139.804 240.337 140.344 240.595 140.731 241.022C141.117 241.45 141.32 242.013 141.295 242.589Z" fill="white"/>
<path d="M147.878 242.62C147.899 242.911 147.859 243.204 147.761 243.479C147.664 243.755 147.511 244.007 147.312 244.22C147.112 244.434 146.871 244.604 146.603 244.721C146.336 244.837 146.047 244.897 145.755 244.897C145.462 244.897 145.174 244.837 144.906 244.721C144.638 244.604 144.397 244.434 144.198 244.22C143.998 244.007 143.845 243.755 143.748 243.479C143.65 243.204 143.61 242.911 143.631 242.62C143.61 242.329 143.65 242.036 143.748 241.761C143.845 241.486 143.998 241.233 144.198 241.02C144.397 240.806 144.638 240.636 144.906 240.519C145.174 240.403 145.462 240.343 145.755 240.343C146.047 240.343 146.336 240.403 146.603 240.519C146.871 240.636 147.112 240.806 147.312 241.02C147.511 241.233 147.664 241.486 147.761 241.761C147.859 242.036 147.899 242.329 147.878 242.62Z" fill="white"/>
<path d="M154.472 242.651C154.442 243.067 154.29 243.464 154.036 243.795C153.781 244.125 153.435 244.373 153.041 244.509C152.647 244.644 152.222 244.661 151.818 244.557C151.414 244.453 151.05 244.233 150.77 243.924C150.491 243.615 150.308 243.23 150.245 242.818C150.181 242.406 150.24 241.985 150.415 241.606C150.589 241.227 150.87 240.908 151.224 240.688C151.578 240.467 151.989 240.356 152.405 240.367C152.98 240.402 153.519 240.66 153.905 241.087C154.291 241.514 154.495 242.076 154.472 242.651Z" fill="white"/>
<path d="M161.056 242.682C161.025 243.098 160.874 243.495 160.619 243.826C160.365 244.156 160.019 244.404 159.625 244.54C159.231 244.675 158.805 244.692 158.402 244.588C157.998 244.484 157.634 244.264 157.354 243.955C157.074 243.646 156.891 243.261 156.828 242.849C156.765 242.437 156.824 242.016 156.998 241.637C157.172 241.258 157.454 240.939 157.808 240.719C158.161 240.499 158.572 240.387 158.989 240.398C159.564 240.433 160.102 240.691 160.488 241.118C160.875 241.545 161.079 242.107 161.056 242.682Z" fill="white"/>
<path d="M167.64 242.703C167.611 243.119 167.461 243.518 167.207 243.85C166.954 244.181 166.609 244.431 166.215 244.568C165.821 244.705 165.395 244.724 164.99 244.621C164.586 244.518 164.221 244.298 163.94 243.989C163.659 243.681 163.476 243.296 163.412 242.884C163.348 242.471 163.406 242.049 163.58 241.67C163.754 241.291 164.036 240.971 164.39 240.75C164.744 240.53 165.155 240.418 165.572 240.429C166.145 240.464 166.682 240.721 167.068 241.146C167.454 241.57 167.659 242.129 167.64 242.703Z" fill="white"/>
<path d="M174.233 242.734C174.205 243.148 174.056 243.545 173.806 243.876C173.555 244.206 173.213 244.457 172.821 244.596C172.43 244.734 172.007 244.756 171.604 244.657C171.2 244.559 170.835 244.344 170.552 244.041C170.269 243.737 170.081 243.357 170.011 242.948C169.941 242.538 169.992 242.118 170.158 241.737C170.324 241.357 170.598 241.033 170.945 240.806C171.293 240.579 171.699 240.459 172.115 240.46C172.697 240.482 173.247 240.733 173.644 241.159C174.041 241.585 174.253 242.152 174.233 242.734Z" fill="white"/>
<path d="M180.817 242.765C180.837 243.056 180.797 243.349 180.7 243.624C180.602 243.899 180.449 244.152 180.25 244.365C180.051 244.579 179.81 244.749 179.542 244.866C179.274 244.982 178.985 245.042 178.693 245.042C178.401 245.042 178.112 244.982 177.844 244.866C177.576 244.749 177.335 244.579 177.136 244.365C176.937 244.152 176.784 243.899 176.686 243.624C176.589 243.349 176.549 243.056 176.569 242.765C176.549 242.473 176.589 242.181 176.686 241.906C176.784 241.63 176.937 241.378 177.136 241.164C177.335 240.951 177.576 240.78 177.844 240.664C178.112 240.548 178.401 240.487 178.693 240.487C178.985 240.487 179.274 240.548 179.542 240.664C179.81 240.78 180.051 240.951 180.25 241.164C180.449 241.378 180.602 241.63 180.7 241.906C180.797 242.181 180.837 242.473 180.817 242.765Z" fill="white"/>
<path d="M187.401 242.796C187.372 243.21 187.224 243.607 186.973 243.938C186.722 244.268 186.38 244.519 185.989 244.658C185.597 244.796 185.174 244.818 184.771 244.719C184.367 244.621 184.002 244.406 183.719 244.103C183.436 243.799 183.248 243.419 183.178 243.01C183.108 242.601 183.159 242.18 183.325 241.799C183.491 241.419 183.765 241.095 184.113 240.868C184.46 240.641 184.867 240.521 185.282 240.522C185.864 240.544 186.414 240.795 186.811 241.221C187.208 241.647 187.42 242.214 187.401 242.796Z" fill="white"/>
<path d="M193.984 242.827C193.956 243.243 193.805 243.642 193.552 243.974C193.299 244.305 192.954 244.555 192.559 244.692C192.165 244.829 191.74 244.848 191.335 244.745C190.931 244.642 190.565 244.422 190.285 244.113C190.004 243.805 189.82 243.42 189.756 243.008C189.692 242.595 189.751 242.173 189.925 241.794C190.099 241.415 190.38 241.095 190.734 240.874C191.089 240.654 191.5 240.542 191.917 240.553C192.49 240.588 193.027 240.845 193.413 241.27C193.799 241.694 194.004 242.253 193.984 242.827Z" fill="white"/>
</g>
<path d="M184.631 93.6269C185.349 93.3107 185.958 92.7904 186.382 92.1307C186.807 91.471 187.028 90.701 187.018 89.9165C187.045 89.4066 186.968 88.8966 186.791 88.4175C186.614 87.9384 186.342 87.5003 185.99 87.1299C185.639 86.7595 185.216 86.4645 184.746 86.2629C184.277 86.0614 183.772 85.9574 183.261 85.9574C182.751 85.9574 182.245 86.0614 181.776 86.2629C181.307 86.4645 180.884 86.7595 180.532 87.1299C180.181 87.5003 179.908 87.9384 179.732 88.4175C179.555 88.8966 179.478 89.4066 179.504 89.9165C179.489 90.7088 179.708 91.488 180.135 92.1558C180.562 92.8235 181.177 93.3498 181.902 93.6683C176.114 94.5364 176.373 100.82 176.373 100.82L190.057 100.882C190.057 100.882 190.377 94.4847 184.631 93.6269Z" fill="#4CAF4F"/>
<path opacity="0.1" d="M184.631 93.6269C185.349 93.3107 185.958 92.7904 186.382 92.1307C186.807 91.471 187.028 90.701 187.018 89.9165C187.045 89.4066 186.968 88.8966 186.791 88.4175C186.614 87.9384 186.342 87.5003 185.99 87.1299C185.639 86.7595 185.216 86.4645 184.746 86.2629C184.277 86.0614 183.772 85.9574 183.261 85.9574C182.751 85.9574 182.245 86.0614 181.776 86.2629C181.307 86.4645 180.884 86.7595 180.532 87.1299C180.181 87.5003 179.908 87.9384 179.732 88.4175C179.555 88.8966 179.478 89.4066 179.504 89.9165C179.489 90.7088 179.708 91.488 180.135 92.1558C180.562 92.8235 181.177 93.3498 181.902 93.6683C176.114 94.5364 176.373 100.82 176.373 100.82L190.057 100.882C190.057 100.882 190.377 94.4847 184.631 93.6269Z" fill="black"/>
<path d="M206.867 104.935L158.095 104.714L158.068 110.543L206.84 110.764L206.867 104.935Z" fill="#4CAF4F"/>
<path opacity="0.2" d="M206.867 104.935L158.095 104.714L158.068 110.543L206.84 110.764L206.867 104.935Z" fill="white"/>
<path d="M27.5657 135.144H27.0799L25.6743 135.247C24.9137 135.293 24.1572 135.393 23.4109 135.547C22.9275 135.615 22.448 135.708 21.9743 135.826L20.3723 136.27C17.6457 137.107 15.0731 138.381 12.7552 140.043C9.69277 142.265 7.13558 145.112 5.25183 148.393C4.14465 150.285 3.26356 152.301 2.62667 154.398C1.95746 156.678 1.57215 159.032 1.47947 161.406C1.41787 162.653 1.43858 163.903 1.54148 165.147C1.54148 165.777 1.71718 166.408 1.79986 167.049C1.8694 167.695 1.99036 168.334 2.16159 168.961C3.09096 173.108 4.97668 176.981 7.66832 180.27C10.36 183.559 13.783 186.174 17.6645 187.905C20.4737 189.117 23.4847 189.794 26.5425 189.9C29.7007 190.074 32.862 189.62 35.8442 188.567L36.7537 188.226H36.8777L36.9811 188.288L50.0139 194.902L49.6315 195.233C48.2362 190.913 46.8926 186.727 45.5904 182.707V182.552L45.7041 182.438C48.8656 179.253 51.2126 175.354 52.546 171.069C53.7537 167.152 54.1062 163.021 53.5795 158.956C53.1111 155.343 51.9495 151.855 50.1586 148.683C48.6148 145.958 46.6232 143.512 44.2675 141.448C42.3239 139.815 40.1727 138.445 37.8699 137.376C36.1275 136.625 34.3129 136.053 32.4542 135.671L30.3872 135.33L28.8886 135.216L27.9791 135.154H27.669C27.7721 135.143 27.876 135.143 27.9791 135.154H28.8989L30.3975 135.216L32.4646 135.516C34.3463 135.87 36.1857 136.421 37.9526 137.159C40.2949 138.216 42.4849 139.582 44.4638 141.221C46.8629 143.276 48.8967 145.722 50.479 148.455C52.3208 151.662 53.518 155.197 54.0033 158.863C54.5736 162.991 54.2457 167.193 53.0421 171.183C51.7 175.556 49.3167 179.539 46.0968 182.789L46.1588 182.521C47.4611 186.541 48.815 190.727 50.2206 195.037L50.4169 195.667L49.8278 195.367L36.7951 188.763H37.0224L36.0923 189.104C33.0526 190.174 29.8328 190.637 26.6148 190.468C23.4912 190.349 20.4172 189.648 17.5508 188.401C12.0831 186.06 7.53409 181.99 4.60071 176.815C3.25084 174.426 2.26503 171.848 1.67583 169.167C1.51449 168.524 1.39367 167.872 1.3141 167.214C1.23142 166.563 1.09706 165.922 1.06605 165.281C0.786339 161.604 1.17502 157.906 2.21327 154.367C2.86601 152.241 3.77165 150.201 4.91077 148.29C6.83945 144.978 9.44992 142.114 12.5692 139.888C14.9253 138.222 17.541 136.957 20.3103 136.146L21.9329 135.733C22.4105 135.622 22.8935 135.536 23.3799 135.474C24.134 135.335 24.8975 135.252 25.664 135.226L27.0799 135.175C27.2409 135.153 27.4032 135.143 27.5657 135.144Z" fill="#4CAF4F"/>
<path d="M33.4567 159.245H31.5447L27.4106 153.437V149.623C27.4106 149.623 24.4547 149.437 24.8061 154.429C25.1575 159.421 24.8061 158.15 24.8061 158.15C24.8061 158.15 18.5326 158.15 18.0159 158.718C17.4991 159.287 17.4681 165.343 17.3957 168.723C17.3561 169.538 17.5899 170.342 18.0599 171.009C18.5299 171.675 19.2092 172.166 19.9899 172.402C20.2087 172.463 20.4346 172.494 20.6617 172.495C22.2326 172.495 30.2218 171.224 30.2218 171.224H33.5187L33.4567 159.245Z" fill="#4CAF4F"/>
<path d="M38.9241 158.222L37.7459 171.286H34.48V158.491L38.9241 158.222Z" fill="#4CAF4F"/>
<path d="M77.8777 424.18V415.343L62.0337 415.229L61.8994 428.593L62.8812 428.665C67.253 428.944 85.1227 429.358 88.0579 428.448C91.3238 427.435 77.8777 424.18 77.8777 424.18Z" fill="#4CAF4F"/>
<path d="M88.43 427.621C88.43 427.766 82.4976 427.89 75.1905 427.89C67.8835 427.89 61.951 427.766 61.951 427.621C61.951 427.477 67.8835 427.353 75.1905 427.353C82.4976 427.353 88.43 427.477 88.43 427.621Z" fill="#263238"/>
<path d="M78.1567 425.988C78.0224 425.916 78.1567 425.451 78.4771 424.955C78.7975 424.459 79.2316 424.252 79.335 424.355C79.4383 424.459 79.2213 424.851 78.9112 425.275C78.6011 425.699 78.2911 426.061 78.1567 425.988Z" fill="#263238"/>
<path d="M79.1696 426.567C79.0249 426.567 79.0973 425.988 79.4073 425.441C79.7174 424.893 80.1308 424.562 80.2445 424.645C80.3582 424.727 80.1721 425.192 79.8828 425.678C79.5934 426.164 79.304 426.619 79.1696 426.567Z" fill="#263238"/>
<path d="M66.726 427.58C66.6639 427.58 66.4262 427.394 66.0852 427.001C65.6688 426.496 65.2051 426.033 64.7002 425.616C64.2038 425.22 63.6124 424.96 62.9846 424.862C62.4988 424.8 62.1888 424.862 62.1578 424.8C62.1268 424.738 62.4265 424.521 62.9949 424.479C63.7451 424.464 64.4769 424.712 65.062 425.182C65.6101 425.629 66.0724 426.172 66.4262 426.784C66.6639 427.239 66.788 427.539 66.726 427.58Z" fill="#263238"/>
<path d="M78.2084 424.324C78.2808 424.448 78.012 424.758 77.5573 424.924C77.1025 425.089 76.6995 425.027 76.6788 424.924C76.6581 424.82 76.9785 424.603 77.3713 424.459C77.764 424.314 78.1257 424.2 78.2084 424.324Z" fill="#263238"/>
<path d="M77.9603 423.467C77.9603 423.622 77.5469 423.746 77.0095 423.756C76.4721 423.766 76.0483 423.642 76.0587 423.498C76.069 423.353 76.4927 423.218 77.0095 423.208C77.5263 423.198 77.9397 423.322 77.9603 423.467Z" fill="#263238"/>
<path d="M116.893 424.18V415.343L101.049 415.229L100.915 428.458L101.897 428.531C106.269 428.81 124.149 429.358 127.074 428.448C130.339 427.435 116.893 424.18 116.893 424.18Z" fill="#4CAF4F"/>
<path d="M127.446 427.642C127.446 427.787 121.523 427.911 114.206 427.911C106.889 427.911 100.977 427.787 100.977 427.642C100.977 427.497 106.899 427.373 114.206 427.373C121.513 427.373 127.446 427.497 127.446 427.642Z" fill="#263238"/>
<path d="M117.172 425.988C117.048 425.916 117.172 425.451 117.493 424.955C117.813 424.459 118.247 424.252 118.351 424.355C118.454 424.459 118.237 424.851 117.927 425.275C117.617 425.699 117.307 426.061 117.172 425.988Z" fill="#263238"/>
<path d="M118.185 426.567C118.051 426.567 118.113 425.988 118.433 425.441C118.754 424.893 119.157 424.562 119.27 424.645C119.384 424.727 119.188 425.192 118.898 425.678C118.609 426.164 118.33 426.619 118.185 426.567Z" fill="#263238"/>
<path d="M105.742 427.58C105.68 427.58 105.452 427.394 105.101 427.001C104.684 426.496 104.221 426.033 103.716 425.616C103.219 425.22 102.628 424.96 102 424.862C101.525 424.8 101.204 424.862 101.173 424.8C101.142 424.738 101.442 424.521 102.011 424.479C102.761 424.464 103.493 424.712 104.078 425.182C104.629 425.626 105.091 426.169 105.442 426.784C105.68 427.239 105.804 427.539 105.742 427.58Z" fill="#263238"/>
<path d="M117.224 424.324C117.296 424.448 117.028 424.758 116.573 424.924C116.118 425.089 115.715 425.027 115.694 424.924C115.674 424.82 115.994 424.603 116.387 424.459C116.78 424.314 117.141 424.2 117.224 424.324Z" fill="#263238"/>
<path d="M116.997 423.467C116.997 423.622 116.583 423.746 116.046 423.756C115.508 423.766 115.095 423.642 115.105 423.498C115.116 423.353 115.529 423.218 116.046 423.208C116.563 423.198 116.997 423.322 116.997 423.467Z" fill="#263238"/>
<path d="M175.267 161.767C174.853 161.344 173.83 161.55 173.83 161.55C173.933 160.955 173.933 160.347 173.83 159.752C173.644 159.173 172.342 159.287 172.342 159.287C172.282 158.799 172.282 158.307 172.342 157.819C172.352 157.711 172.329 157.603 172.276 157.508C172.222 157.414 172.14 157.338 172.042 157.292C171.426 157.041 170.764 156.921 170.099 156.941C169.303 156.372 172.528 151.856 173.727 150.409C174.926 148.962 174.709 147.835 173.644 147.835C172.91 147.835 169.148 152.176 167.991 153.633C166.833 155.091 163.764 159.142 163.66 155.907C163.557 152.672 162.255 150.233 161.438 149.82C160.622 149.406 159.754 150.378 160.198 151.277C160.589 152.299 160.832 153.37 160.922 154.46C161.034 155.329 160.995 156.21 160.808 157.065C160.465 158.656 159.999 160.218 159.413 161.736H159.33C159.33 161.736 136.778 183.368 135.145 184.908C133.688 186.293 104.377 183.265 98.4966 182.645C96.4982 182.352 94.4803 182.214 92.4607 182.231C89.9079 182.345 89.4532 182.707 86.9107 182.738C80.4899 182.809 74.0839 183.372 67.7491 184.422C64.8807 184.91 62.2013 186.176 60.0033 188.082C57.8053 189.989 56.1731 192.462 55.2848 195.233C49.3627 213.733 35.9475 257.524 33.5807 282.121C31.7923 285.365 30.1777 288.701 28.7438 292.116C27.0799 296.643 27.4829 296.798 28.041 296.901C29.55 297.18 31.2656 289.056 31.9064 291.02C32.5472 292.984 28.6508 300.704 30.2321 300.932C32.2992 301.221 33.9425 292.663 34.1389 291.981C34.3352 291.299 35.3584 291.516 35.1724 292.157C34.8727 293.067 31.9684 302.709 33.9942 303.019C35.1104 303.185 35.2344 301.149 35.2344 301.149C35.2344 301.149 37.3014 291.919 38.242 292.105C39.1825 292.291 38.1799 297.738 37.7045 299.557C37.2291 301.376 37.8905 302.296 38.8621 301.851C39.5235 301.541 41.1048 296.012 41.5389 294.214C41.973 292.415 43.0582 287.434 44.5155 290.317C45.9727 293.201 48.1845 294.875 49.094 294.917C49.2989 294.893 49.4921 294.808 49.6487 294.674C49.8052 294.54 49.918 294.362 49.9725 294.163C50.0269 293.964 50.0206 293.753 49.9543 293.558C49.888 293.362 49.7647 293.191 49.6004 293.067C48.8181 292.303 48.1467 291.433 47.6057 290.483C47.1236 289.743 46.7739 288.924 46.5722 288.064C46.1557 286.35 45.9133 284.598 45.8487 282.835L45.6833 281.801C47.9984 270.339 54.6647 236.698 64.2868 215.211L68.2349 223.334L69.9505 229.35L59.4292 255.322L104.305 254.733L97.6077 228.957L105.742 202.085C114.537 202.282 137.119 202.612 140.881 200.907C145.615 198.84 170.099 167.917 170.099 167.917C171.695 166.677 173.224 165.352 174.678 163.948C174.678 163.948 176.166 162.697 175.267 161.767Z" fill="#FFBE9D"/>
<path d="M57.4552 236.13C58.7575 231.685 65.4444 209.713 65.4444 209.713C65.4444 209.713 68.731 227.624 67.8628 229.784C67.0642 231.633 66.1208 233.416 65.0413 235.117C57.4552 246.661 58.4474 252.439 58.4474 252.439L104.284 251.043C104.388 244.635 100.595 229.732 99.8091 227.355C99.0236 224.978 101.638 217.195 101.638 217.195C101.638 217.195 106.806 211.935 106.62 209.227C106.522 206.794 106.221 204.375 105.721 201.992L133.626 203.026L132.748 184.112L92.6675 180.102C91.2722 184.04 78.6528 182.107 78.6528 182.107C65.031 182.562 64.1835 185.063 58.5197 189.466C52.856 193.869 43.4819 231.654 43.4819 231.654L57.4552 236.13Z" fill="#4CAF4F"/>
<path d="M84.5543 231.654C83.7599 231.796 82.9509 231.838 82.1462 231.778C80.6476 231.778 78.5908 231.675 76.3274 231.448C74.064 231.22 72.0176 230.9 70.5603 230.61C69.7568 230.507 68.9689 230.306 68.2142 230.011C69.0223 230.011 69.8285 230.088 70.6224 230.238C72.09 230.424 74.126 230.683 76.3791 230.91C78.6322 231.138 80.6786 231.293 82.1565 231.396C82.9621 231.406 83.765 231.493 84.5543 231.654Z" fill="#263238"/>
<path d="M87.6962 227.758C86.9016 228.147 86.0613 228.435 85.195 228.616C81.0716 229.699 76.8175 230.204 72.555 230.114C71.673 230.143 70.7909 230.06 69.9299 229.866C70.8004 229.756 71.6778 229.712 72.555 229.732C74.1777 229.68 76.4101 229.567 78.8699 229.277C81.3297 228.988 83.5207 228.574 85.071 228.244C85.9321 228.014 86.8098 227.851 87.6962 227.758Z" fill="#263238"/>
<path d="M103.116 210.374C103.096 211.162 102.988 211.945 102.796 212.71C102.527 214.146 102.114 216.11 101.587 218.26C101.06 220.41 100.553 222.394 100.099 223.738C99.9157 224.507 99.6452 225.252 99.2924 225.96C99.3499 225.174 99.4955 224.398 99.7264 223.645C100.119 222.032 100.564 220.172 101.06 218.136C101.556 216.1 102.031 214.239 102.424 212.627C102.564 211.851 102.796 211.095 103.116 210.374Z" fill="#263238"/>
<path d="M57.9409 233.494C55.5499 233.125 53.1902 232.575 50.882 231.851C48.5233 231.299 46.2088 230.574 43.9573 229.68C46.3472 230.056 48.7065 230.605 51.0163 231.324C53.3755 231.873 55.6902 232.599 57.9409 233.494Z" fill="#263238"/>
<path d="M106.217 201.765C105.827 201.832 105.429 201.832 105.039 201.765C103.959 201.654 102.899 201.4 101.887 201.01C100.196 200.375 98.6566 199.393 97.368 198.127C96.0793 196.862 95.0696 195.341 94.4038 193.662C93.6678 191.815 93.3536 189.827 93.4839 187.843C93.53 186.207 94.0194 184.614 94.8999 183.234C95.5192 182.304 96.4442 181.62 97.5147 181.301C97.8007 181.222 98.0965 181.184 98.3932 181.187C98.5999 181.187 98.7033 181.187 98.7033 181.187C98.7033 181.187 98.2692 181.187 97.5767 181.466C96.5947 181.829 95.7617 182.509 95.2099 183.399C93.8043 185.611 93.4116 189.652 94.9102 193.424C95.6077 195.203 96.6996 196.8 98.1038 198.096C99.2544 199.156 100.58 200.009 102.021 200.618C103.373 201.152 104.781 201.537 106.217 201.765Z" fill="#263238"/>
<path d="M130.309 202.654C130.05 199.484 129.967 196.303 130.06 193.124C129.98 189.949 130.076 186.771 130.35 183.606C130.609 186.772 130.691 189.949 130.598 193.124C130.685 196.304 130.588 199.485 130.309 202.654Z" fill="#263238"/>
<path d="M92.3987 181.26C92.5124 178.955 92.7501 176.35 92.7501 176.35C92.7501 176.35 98.4552 175.72 98.7962 169.829C99.1373 163.938 98.7962 150.347 98.7962 150.347L88.461 145.055L76.9888 154.078L78.7562 183.533L89.2775 184.205C90.0817 184.227 90.8619 183.93 91.447 183.378C92.0322 182.825 92.3744 182.064 92.3987 181.26Z" fill="#FFBE9D"/>
<path d="M93.4219 165.168C93.4219 165.168 93.422 165.281 93.3289 165.416C93.252 165.513 93.1526 165.59 93.0391 165.641C92.9257 165.691 92.8017 165.713 92.6778 165.705C92.0164 165.705 91.3756 164.94 91.1482 164.051C91.0401 163.621 91.0401 163.17 91.1482 162.739C91.1694 162.551 91.2372 162.371 91.3455 162.216C91.4538 162.061 91.5991 161.935 91.7683 161.85C91.9073 161.793 92.0634 161.793 92.2024 161.85C92.3054 161.901 92.3889 161.985 92.4401 162.088C92.5124 162.263 92.4401 162.377 92.4401 162.367C92.4401 162.356 92.4401 162.263 92.3367 162.16C92.2827 162.086 92.2033 162.035 92.1136 162.015C92.024 161.996 91.9305 162.011 91.851 162.057C91.7242 162.133 91.6189 162.241 91.5448 162.369C91.4707 162.497 91.4303 162.642 91.4272 162.79C91.3402 163.175 91.3402 163.574 91.4272 163.958C91.6339 164.765 92.192 165.416 92.6881 165.478C92.7852 165.491 92.8839 165.484 92.9782 165.457C93.0724 165.431 93.1601 165.385 93.2359 165.323C93.3599 165.24 93.4013 165.157 93.4219 165.168Z" fill="#EB996E"/>
<path d="M102.341 147.164C101.545 144.456 98.6619 143.112 96.0368 142.368C92.037 141.231 87.7169 140.735 83.8102 142.172C79.9034 143.608 75.2112 146.13 75.2112 150.44C72.9065 150.254 71.5835 152.269 70.674 154.77C70.0925 156.294 69.7441 157.897 69.6405 159.525C69.3511 165.168 67.7698 172.96 64.1111 177.095C62.0441 179.399 59.1812 180.991 58.003 183.864C56.9695 186.355 57.5069 189.311 56.5457 191.833C55.6879 194.055 53.7965 195.636 52.4116 197.569C51.0007 199.761 50.1703 202.276 49.9986 204.878C49.8268 207.48 50.3193 210.082 51.4298 212.441C52.5482 214.74 54.1229 216.786 56.0579 218.457C57.9929 220.127 60.2477 221.386 62.6849 222.156C67.5125 223.625 72.6606 223.675 77.516 222.301C81.1599 221.43 84.5592 219.744 87.4585 217.371C90.4251 214.948 92.4626 211.575 93.2256 207.821C93.9594 203.604 92.7812 199.315 91.9027 195.119C89.1535 181.859 89.939 181.167 93.4116 168.857C93.4943 168.64 93.5356 168.413 93.5976 168.196C93.6597 167.979 93.6907 167.875 93.732 167.71C93.8307 167.224 93.8826 166.729 93.887 166.232C93.3798 166.421 92.8293 166.461 92.3002 166.347C91.7711 166.234 91.2854 165.971 90.9001 165.591C90.514 165.186 90.2448 164.684 90.1211 164.138C89.9974 163.592 90.0237 163.023 90.1974 162.491C90.4412 161.909 90.8045 161.385 91.2639 160.952C91.7232 160.519 92.2683 160.188 92.8638 159.979C94.0111 159.504 95.2409 159.256 96.3675 158.729C98.7549 157.592 100.409 155.235 101.535 152.765C102.461 151.053 102.747 149.067 102.341 147.164Z" fill="#263238"/>
<path d="M93.8353 165.447C94.0537 165.769 94.2341 166.116 94.3728 166.48C94.6828 167.131 95.0962 168.051 95.551 169.116L95.6337 169.312H95.4166L94.3831 169.405C93.67 169.405 93.0705 169.539 92.3677 169.529C92.3065 169.515 92.2498 169.486 92.2028 169.445C92.1558 169.403 92.1201 169.35 92.099 169.291C92.0682 169.197 92.0682 169.096 92.099 169.002C92.1229 168.863 92.154 168.725 92.192 168.589L92.378 167.855C92.4715 167.365 92.6171 166.887 92.8121 166.429C92.7929 166.928 92.7201 167.423 92.5951 167.906L92.4504 168.64C92.3987 168.888 92.3057 169.271 92.4504 169.24C92.9672 169.24 93.701 169.126 94.3831 169.085L95.4166 168.992L95.2823 169.219C94.8379 168.186 94.4658 167.214 94.2487 166.542C94.0584 166.199 93.9191 165.83 93.8353 165.447Z" fill="#4CAF4F"/>
<path d="M58.4474 252.439L104.284 251.043L124.231 328.909L120.562 418.227H96.3262L99.2924 330.811L81.5674 276.602L84.2959 421.689L59.8013 422.051L57.2279 285.677C57.1142 281.884 55.8739 273.336 56.339 269.574L58.4474 252.439Z" fill="#263238"/>
<path d="M87.6652 277.708C86.9149 277.756 86.1617 277.71 85.4224 277.574C84.0375 277.409 82.1462 277.119 80.0688 276.706C77.9914 276.292 76.131 275.817 74.7875 275.435C74.0692 275.277 73.3744 275.027 72.7204 274.69C72.7204 274.535 76.0897 275.342 80.2238 276.179C84.3579 277.016 87.6859 277.553 87.6652 277.708Z" fill="#455A64"/>
<path d="M120.314 413.328C120.314 413.472 114.826 413.596 108.057 413.596C101.287 413.596 95.7887 413.472 95.7887 413.328C95.7887 413.183 101.277 413.059 108.057 413.059C114.837 413.059 120.314 413.173 120.314 413.328Z" fill="#455A64"/>
<path d="M84.0788 417.916C84.0788 418.071 78.7459 418.185 72.1726 418.185C65.5994 418.185 60.2767 418.071 60.2767 417.916C60.2767 417.761 65.6097 417.648 72.1726 417.648C78.7355 417.648 84.0788 417.772 84.0788 417.916Z" fill="#455A64"/>
<path d="M80.9162 417.544C80.7716 417.544 80.1308 385.846 79.4796 346.748C78.8285 307.65 78.4461 275.931 78.5805 275.931C78.7148 275.931 79.3763 307.619 80.0171 346.738C80.6579 385.857 81.0713 417.544 80.9162 417.544Z" fill="#455A64"/>
<path d="M117.059 413.328C117.047 413.187 117.047 413.045 117.059 412.904V411.664C117.059 410.547 117.141 408.946 117.203 406.909C117.348 402.775 117.555 396.771 117.813 389.412C118.371 374.612 119.157 354.21 120.015 331.689C120.015 331.472 120.015 331.266 120.015 331.08V331.152C114.589 309.448 109.679 289.749 106.114 275.497L101.98 258.64C101.504 256.666 101.142 255.126 100.884 254.051C100.76 253.544 100.677 253.152 100.605 252.852C100.565 252.718 100.54 252.579 100.533 252.439C100.586 252.569 100.628 252.704 100.657 252.842C100.739 253.131 100.843 253.524 100.987 254.02C101.266 255.053 101.669 256.624 102.186 258.588C103.22 262.577 104.677 268.324 106.496 275.404C110.093 289.646 115.054 309.293 120.552 331.028V331.1C120.552 331.286 120.552 331.503 120.552 331.71C119.632 354.231 118.795 374.622 118.185 389.422C117.865 396.791 117.596 402.755 117.41 406.909C117.307 408.977 117.224 410.547 117.172 411.664C117.172 412.191 117.11 412.604 117.1 412.904C117.102 413.046 117.088 413.188 117.059 413.328Z" fill="#455A64"/>
<path d="M109.152 329.261C107.411 329.833 105.618 330.231 103.799 330.449C101.566 330.832 99.6644 331.1 98.8066 331.142V330.935C99.0857 331.018 99.2303 331.069 99.2303 331.111C99.2303 331.152 99.0547 331.111 98.7653 331.111H98.1451L98.7653 330.925C99.5714 330.687 101.473 330.294 103.706 329.891C105.496 329.503 107.32 329.291 109.152 329.261Z" fill="#455A64"/>
<path d="M108.728 332.227C107.116 332.301 105.501 332.228 103.902 332.01C102.288 331.977 100.679 331.8 99.096 331.483C102.326 331.219 105.577 331.47 108.728 332.227Z" fill="#455A64"/>
<path opacity="0.2" d="M58.251 254.082C58.7939 254.779 59.4776 255.354 60.2577 255.769C61.0377 256.184 61.8964 256.429 62.7779 256.49C64.6239 256.709 66.4913 256.674 68.3279 256.387C80.1618 255.074 92.6985 253.865 104.284 251.043C89.2878 251.88 73.4439 251.601 58.4474 252.439L58.2924 253.72" fill="black"/>
<g opacity="0.2">
<path d="M73.7023 275.217L82.1565 308.022L81.5674 276.602L73.7023 275.217Z" fill="black"/>
</g>
</svg>
